<svg version="1.1" id="Layer_1" xmlns="http://www.w3.org/2000/svg" xmlns:xlink="http://www.w3.org/1999/xlink" x="0px" y="0px"
	 width="100%" viewBox="0 0 500 500" enable-background="new 0 0 500 500" xml:space="preserve">
<path fill="#004AAD" opacity="1.000000" stroke="none" 
	d="
M276.000000,501.000000 
	C185.333359,501.000000 95.166679,500.975098 5.000193,501.095795 
	C1.576114,501.100372 0.903036,500.423828 0.905301,497.000000 
	C1.013778,333.000092 1.013756,169.000122 0.905337,5.000246 
	C0.903074,1.576944 1.575796,0.903021 4.999877,0.905286 
	C168.999756,1.013775 332.999725,1.013761 496.999634,0.905353 
	C500.422668,0.903091 501.096985,1.575430 501.094727,4.999757 
	C500.986206,168.999634 500.986237,332.999603 501.094604,496.999512 
	C501.096893,500.422272 500.425629,501.102264 497.000275,501.096344 
	C423.500336,500.969482 350.000153,501.000000 276.000000,501.000000 
z"/>
<path fill="#4B80C5" opacity="1.000000" stroke="none" 
	d="
M62.010201,182.099060 
	C65.349854,156.419662 68.659454,131.186615 71.989349,105.956245 
	C74.274261,88.643654 76.289810,71.288170 78.991585,54.040485 
	C80.821144,42.360851 92.517365,34.791702 104.112816,36.365089 
	C133.783813,40.391136 163.489914,44.157974 193.177368,48.063427 
	C220.050705,51.598675 246.911758,55.227493 273.789520,58.728397 
	C303.142609,62.551723 332.514069,66.233421 361.867279,70.055756 
	C385.951813,73.192024 410.021301,76.443977 434.097443,79.644562 
	C439.534729,80.367378 445.018982,80.842606 450.399506,81.864273 
	C461.352386,83.944008 469.175323,94.120857 467.817383,105.183777 
	C464.594055,131.444672 460.977478,157.657181 457.551270,183.893356 
	C454.340546,208.479462 451.185486,233.072830 447.977905,257.659363 
	C444.899017,281.259003 441.769592,304.852020 438.688873,328.451416 
	C435.113068,355.843109 431.581421,383.240540 427.999420,410.631409 
	C426.402954,422.839355 424.871613,435.058502 423.052826,447.234009 
	C421.200256,459.635742 410.122101,467.170349 397.645386,465.473145 
	C370.605988,461.794922 343.517853,458.476379 316.458130,454.945831 
	C289.727478,451.458130 263.011627,447.856995 236.281281,444.366913 
	C206.909378,440.531891 177.524521,436.795959 148.152328,432.963135 
	C118.785767,429.131073 89.429031,425.223694 60.064747,421.374084 
	C56.271297,420.876740 52.405090,420.732971 48.785736,419.377045 
	C38.660694,415.583923 32.779259,406.046661 34.187141,395.275543 
	C38.304718,363.773621 42.612709,332.296631 46.721737,300.793640 
	C50.571552,271.277985 54.247494,241.739716 58.031860,212.215485 
	C59.300331,202.319366 60.667015,192.435822 62.010201,182.099060 
z"/>
<path fill="#655BC8" opacity="1.000000" stroke="none" 
	d="
M257.585938,89.957832 
	C258.772858,89.912033 259.511536,89.885498 260.619690,89.850754 
	C262.341125,89.579292 263.700836,89.198143 265.267181,90.391068 
	C266.001770,91.415588 266.313721,92.301079 265.972748,93.042961 
	C261.093781,103.657997 264.131409,114.781662 263.852936,125.685371 
	C263.819794,126.983246 264.452606,128.319687 264.200958,129.614029 
	C263.481842,133.312546 263.456055,136.768372 266.496002,139.608871 
	C266.950897,140.033936 266.761169,140.864594 266.409424,141.909973 
	C264.798218,143.757629 264.883484,145.649445 264.735199,147.457062 
	C264.435364,151.111557 264.502930,154.776733 264.502228,158.438751 
	C264.489655,223.697281 264.518524,288.955811 264.475464,354.668945 
	C262.815857,358.454803 262.843414,361.757385 264.555115,365.071442 
	C265.189270,366.299225 265.227783,367.687012 264.881775,368.971497 
	C261.891388,380.072266 264.340668,391.453552 263.126343,402.650421 
	C262.836731,405.321106 264.363281,407.766846 265.188354,410.284943 
	C265.895599,412.443390 267.255768,414.542145 265.978638,417.351562 
	C261.156036,420.326477 256.148712,418.414978 250.939209,418.999115 
	C249.678711,419.000488 248.841751,418.976013 247.591034,418.991241 
	C245.798172,418.966644 244.410477,419.092590 242.682312,418.557678 
	C239.953094,415.678040 239.532730,412.478241 239.534607,409.059174 
	C239.542725,394.247009 239.542999,379.434723 239.543167,364.622498 
	C239.543213,360.763092 239.471344,356.963715 237.113739,353.613770 
	C235.957794,351.971252 236.078369,350.194763 236.937332,348.404083 
	C238.127823,345.922333 238.599533,343.364655 237.254837,340.346466 
	C236.253448,338.390656 236.731155,336.797363 237.104401,334.816650 
	C237.284470,333.659546 237.404953,332.890839 237.473328,331.727600 
	C237.491821,330.295410 237.497162,329.249939 237.498779,327.795715 
	C237.315613,314.685272 238.027328,301.967896 236.758331,289.282288 
	C236.605331,287.752838 236.407150,286.356354 235.270370,284.743896 
	C234.738647,282.856140 234.677536,281.244812 235.673279,280.063873 
	C238.935394,276.195007 239.243912,271.415710 239.356522,266.849976 
	C239.758270,250.563904 239.881805,234.266159 238.484207,218.004898 
	C238.384003,216.838943 238.122162,215.706375 237.781128,214.143768 
	C237.352219,199.471527 237.544571,185.231735 237.500488,170.545639 
	C237.294434,164.178925 238.690552,158.210602 236.891113,152.331253 
	C236.608353,151.407379 236.668427,150.259872 237.076218,149.381378 
	C240.594727,141.801453 239.461182,133.738708 239.493134,125.830963 
	C239.531998,116.209480 239.891983,106.578209 239.243469,96.964417 
	C239.034241,93.862587 240.241043,92.305199 243.247223,91.206322 
	C247.850143,89.523781 252.504227,90.257744 257.585938,89.957832 
z"/>
<path fill="#0D4CB0" opacity="1.000000" stroke="none" 
	d="
M117.343414,417.585693 
	C111.831360,417.759552 106.578140,419.021942 101.222183,416.713165 
	C98.654823,412.899323 98.610229,408.997314 98.264740,404.780457 
	C94.178673,354.909332 97.272865,304.975739 96.663208,255.082962 
	C96.054688,205.282974 96.527451,155.469864 96.556747,105.662552 
	C96.558945,101.933342 95.579697,98.425941 94.861542,94.358795 
	C99.872528,88.390831 106.505630,88.826492 113.540253,89.079575 
	C119.480331,91.934067 119.844719,93.217003 119.769188,99.273933 
	C119.507820,120.237282 118.732849,141.207825 120.210556,162.164612 
	C120.631485,168.134216 120.948036,174.129776 119.219040,180.018295 
	C118.367645,182.917908 118.475319,185.951935 118.474678,188.951126 
	C118.465828,230.244919 117.701050,271.557617 118.721809,312.826416 
	C119.508339,344.625610 119.056709,376.405365 119.409454,408.191223 
	C119.443474,411.256744 120.124565,414.585083 117.343414,417.585693 
z"/>
<path fill="#174EB2" opacity="1.000000" stroke="none" 
	d="
M117.457603,417.966370 
	C116.991524,387.760559 117.797707,357.568878 116.809250,327.436096 
	C115.273483,280.619232 116.646980,233.812790 115.954979,187.008713 
	C115.846298,179.657806 118.871658,172.732895 118.054947,165.260925 
	C115.767776,144.335892 117.406792,123.317459 117.078423,102.342369 
	C117.008064,97.847565 117.908295,93.334824 114.131042,89.416412 
	C121.007942,89.098701 128.016983,89.084442 135.491028,89.099350 
	C136.906540,90.173317 136.842758,91.465401 135.990829,92.286682 
	C133.103561,95.070107 133.438889,98.579247 133.447830,102.055931 
	C133.476868,113.343552 133.504807,124.631584 133.434189,135.918655 
	C133.409317,139.888992 133.984848,143.515640 137.039246,146.378220 
	C138.607132,147.847626 138.706421,149.915909 139.020508,152.282043 
	C137.527451,156.653061 134.348846,159.626160 133.125839,163.703720 
	C131.392807,169.481720 130.444656,175.294601 130.455582,181.365356 
	C130.537003,226.606903 130.530396,271.848724 130.465729,317.090363 
	C130.456863,323.301239 130.974564,329.374451 133.101013,335.721008 
	C133.430679,338.581787 134.054565,340.918274 134.489655,343.710632 
	C134.316147,344.425842 134.226517,344.705078 133.944611,345.374146 
	C130.949966,349.508728 132.415421,353.713867 132.435120,357.772217 
	C132.502716,371.696320 132.579544,385.622223 132.406433,399.544098 
	C132.326920,405.938049 132.450577,412.104248 137.055939,417.529694 
	C130.605652,417.961517 124.265579,417.984192 117.457603,417.966370 
z"/>
<path fill="#064BAE" opacity="1.000000" stroke="none" 
	d="
M94.526062,94.053619 
	C100.088722,95.439980 99.056786,99.596588 99.048569,103.590530 
	C98.970123,141.714005 99.000328,179.837708 99.000084,217.961349 
	C98.999718,275.729492 99.001251,333.497620 98.996857,391.265778 
	C98.996574,394.916107 98.555779,398.639740 101.930901,401.360504 
	C102.900032,402.141724 103.100609,403.634125 102.328857,404.575531 
	C99.513054,408.010529 100.925690,411.884430 100.905701,416.070740 
	C90.510780,412.367310 86.024628,404.558868 86.032112,393.526215 
	C86.095177,300.589539 86.078026,207.652802 86.040894,114.716080 
	C86.037697,106.727875 87.544540,99.469612 94.526062,94.053619 
z"/>
<path fill="#6672C8" opacity="1.000000" stroke="none" 
	d="
M265.356079,91.327301 
	C263.871887,90.748039 262.720978,90.504578 261.279602,90.051834 
	C262.462463,86.838943 265.348938,86.678749 267.907867,87.117821 
	C274.903137,88.318138 281.827118,87.059212 288.779541,87.051117 
	C325.599152,87.008247 362.419983,87.182426 399.237976,86.930954 
	C412.261414,86.842010 420.702484,96.166016 421.927216,108.708481 
	C422.201294,111.515419 422.010406,114.369087 422.010559,117.201241 
	C422.015167,203.502655 422.028870,289.804047 421.996033,376.105469 
	C421.993439,382.894043 422.837494,389.611389 422.208740,396.486633 
	C421.217041,407.330505 414.230377,417.511597 403.912292,420.406494 
	C401.660767,421.038177 398.994385,420.050293 396.518677,420.045807 
	C372.527649,420.002228 348.507690,419.290955 324.555511,420.252869 
	C308.398499,420.901764 292.259613,421.078400 276.138031,420.782928 
	C265.005951,420.578918 253.865356,419.964905 242.715729,419.946564 
	C241.194824,419.944061 239.710358,419.773987 238.307983,418.314270 
	C239.267960,416.564392 240.706589,416.486359 242.678375,417.631927 
	C244.421417,417.929260 245.782715,417.942902 247.552460,417.951019 
	C248.135956,417.826630 248.311005,417.707794 248.751556,417.762909 
	C254.097397,417.721313 259.226288,418.633606 264.646423,417.129150 
	C267.217102,414.179657 270.357056,414.770172 273.298523,414.621063 
	C275.124939,414.528503 276.902893,415.328125 279.202576,414.755188 
	C282.820435,414.055389 285.919159,414.868378 289.512268,414.993835 
	C293.999939,414.476959 298.027344,414.463196 302.524475,414.794678 
	C307.030060,414.384552 311.042175,414.702118 315.512268,415.217621 
	C320.221985,413.877167 324.503174,415.762268 329.201050,414.888123 
	C334.564819,414.197296 339.278137,415.945343 344.588623,415.994720 
	C349.539246,415.503815 354.035217,415.230713 358.959442,416.174377 
	C359.991425,416.235321 360.579559,416.262115 361.603760,416.307007 
	C364.344269,416.468506 366.649414,416.505768 369.386658,416.330963 
	C370.393585,416.244080 370.970093,416.201416 371.981079,416.133118 
	C375.572205,415.206268 378.784637,416.306976 382.378113,415.730743 
	C384.568878,415.105804 386.206055,416.100677 388.348022,416.042145 
	C391.970337,415.608459 395.191284,415.513794 398.791992,415.520355 
	C399.878204,415.451538 400.593048,415.424957 401.621033,415.196777 
	C402.344421,414.921783 402.749908,414.748383 403.483521,414.552124 
	C405.380859,414.527130 406.667603,413.938904 407.822266,412.417389 
	C408.911438,411.184937 410.459534,411.376770 411.541809,410.092590 
	C412.420319,409.249390 413.026428,408.598175 413.714539,407.545654 
	C414.819092,405.895111 414.996735,404.358826 415.176361,402.359070 
	C418.045654,398.290771 418.537659,394.140137 418.535431,389.693756 
	C418.489624,298.494568 418.500824,207.295334 418.508209,116.096107 
	C418.508636,110.689575 417.857269,105.477180 414.919983,100.332016 
	C414.272003,99.563423 413.922150,99.122147 413.299988,98.398621 
	C412.494507,97.587189 411.959656,97.060120 411.177612,96.283600 
	C409.121063,93.902130 406.514923,93.047554 403.822754,91.707977 
	C402.601898,91.350746 401.703217,91.117714 400.401123,91.042213 
	C399.529388,90.957489 399.022430,90.921967 398.111755,90.893433 
	C393.742462,91.977737 389.834076,90.751091 385.467041,90.579605 
	C381.451538,90.481010 377.863098,90.612991 374.284729,90.481766 
	C371.060089,90.363503 368.197296,91.239899 365.065247,92.969826 
	C362.859344,93.302170 361.099854,93.192879 358.918091,92.867233 
	C355.156677,92.575630 351.936310,91.420898 348.152985,91.450272 
	C346.432007,90.894623 345.070587,90.680481 343.270691,90.594757 
	C337.350464,89.884796 332.408447,92.775566 326.639038,93.042816 
	C322.064911,90.936913 317.903381,89.454277 313.265625,92.928436 
	C309.673859,92.981468 306.567444,92.270988 302.972107,92.010498 
	C297.465607,92.467003 292.395172,92.664680 286.866241,92.215050 
	C283.405212,92.132835 280.473236,92.948532 277.013306,93.038818 
	C272.862427,93.134010 269.021240,94.378136 265.356079,91.327301 
z"/>
<path fill="#5959C5" opacity="1.000000" stroke="none" 
	d="
M243.000397,417.506561 
	C241.667160,417.948792 240.274216,417.981995 238.467239,418.023590 
	C236.639328,418.015442 235.225449,417.998932 233.388885,417.972412 
	C232.808624,417.837830 232.651062,417.713257 232.259033,417.777954 
	C230.627762,417.973358 229.230942,417.979492 227.415192,417.974060 
	C223.535660,416.373138 222.540878,413.566376 222.545364,409.920441 
	C222.559021,398.817780 222.503113,387.714172 222.565887,376.611786 
	C222.598190,370.896515 222.422058,365.321014 218.571213,360.587982 
	C217.809647,359.651978 217.750809,358.445160 218.256165,356.877991 
	C218.515564,354.843018 219.516327,353.442627 220.784592,352.882721 
	C226.505096,350.357208 230.030869,345.646606 233.725800,340.534607 
	C234.948685,339.511749 236.094025,339.198639 237.636536,339.002319 
	C241.473114,341.855713 243.471649,344.924713 239.609711,348.979614 
	C238.573273,350.067810 238.228851,351.418854 239.443588,352.515717 
	C242.304291,355.098724 241.996414,358.469574 241.997345,361.788025 
	C242.001617,377.091827 242.022247,392.395691 241.981934,407.699371 
	C241.973557,410.877228 242.157883,414.011810 243.000397,417.506561 
z"/>
<path fill="#5959C5" opacity="1.000000" stroke="none" 
	d="
M257.663330,89.753242 
	C255.448425,91.571381 252.529266,90.769371 249.761383,91.067070 
	C243.624084,91.727158 241.908722,93.800209 241.950073,99.785164 
	C242.044189,113.401443 242.025070,127.019043 241.939453,140.635406 
	C241.927170,142.586548 241.662003,144.705215 240.859909,146.444824 
	C239.466202,149.467606 239.323959,152.030853 240.374847,155.397766 
	C241.784866,159.915222 238.474731,164.607651 239.205414,169.728241 
	C235.562592,168.643494 236.313980,164.222092 233.278503,162.080246 
	C232.260742,158.790619 232.334549,155.180984 227.769150,154.321411 
	C227.291016,153.975357 227.122040,153.807053 226.773010,153.329941 
	C226.270279,151.633606 225.787857,150.312042 224.800903,148.800781 
	C224.512863,148.247910 224.407578,148.017593 224.138794,147.436401 
	C223.754959,146.592163 223.600098,146.078766 223.413391,145.129272 
	C222.222839,138.980835 221.827515,133.292007 222.136246,127.377060 
	C222.671844,117.115585 223.646530,106.761040 221.278152,96.530899 
	C220.388123,92.686531 221.643677,91.190483 225.600082,90.601883 
	C227.808899,90.273262 230.068604,90.256561 232.599884,89.318604 
	C241.082413,89.253334 249.209686,88.330925 257.663330,89.753242 
z"/>
<path fill="#204FB7" opacity="1.000000" stroke="none" 
	d="
M137.417145,417.968018 
	C130.697189,416.893097 130.022308,412.226349 130.015472,407.184387 
	C129.993362,390.912964 130.013412,374.641479 129.992081,358.370026 
	C129.987732,355.057190 130.231689,351.725983 129.381424,348.457520 
	C128.727570,345.944031 129.464722,344.538177 132.968018,345.109772 
	C134.721725,346.936768 134.974548,349.819427 138.563873,348.529541 
	C142.295486,350.013550 144.941116,352.510223 148.008789,355.128967 
	C150.410828,357.486145 151.016998,359.761017 149.607376,362.569611 
	C148.391434,364.992340 148.475769,367.710815 148.471329,370.367523 
	C148.453934,380.799377 148.644516,391.235504 148.393982,401.661438 
	C148.255081,407.441010 148.594086,412.845978 153.026291,417.511475 
	C147.918015,417.953583 142.903290,417.975403 137.417145,417.968018 
z"/>
<path fill="#4E58C2" opacity="1.000000" stroke="none" 
	d="
M219.661255,355.646423 
	C220.073532,356.746429 219.912811,357.796997 220.363449,358.302063 
	C226.084244,364.713806 224.982773,372.534668 224.995605,380.124115 
	C225.011627,389.606445 225.054321,399.089355 224.968811,408.570953 
	C224.941238,411.628723 225.278519,414.532532 226.887558,417.598114 
	C221.300125,417.973145 215.603989,417.983765 209.438141,417.978638 
	C208.443726,417.684021 207.933395,417.380920 207.112335,416.747131 
	C204.545349,414.229065 204.595856,411.363037 204.572525,408.539642 
	C204.486115,398.086212 204.563095,387.632385 204.526794,377.178772 
	C204.516968,374.347748 204.584000,371.445099 203.327072,368.866882 
	C201.344193,364.799591 202.044632,361.865967 206.315170,359.991272 
	C206.928223,359.722107 207.268066,359.092804 207.758911,358.092133 
	C209.777954,356.014557 212.062576,355.676941 214.801025,355.378967 
	C216.607407,355.289398 217.991241,354.706665 219.661255,355.646423 
z"/>
<path fill="#3B54BD" opacity="1.000000" stroke="none" 
	d="
M195.288727,417.616272 
	C189.311356,417.975983 183.621277,417.988342 177.463196,417.984131 
	C173.612183,416.249542 172.512695,413.365143 172.578629,409.739136 
	C172.823318,396.280090 171.864868,382.803040 173.171936,369.360474 
	C173.385452,367.164490 173.000977,365.037140 172.543762,362.933167 
	C172.136185,361.057709 172.100220,359.318756 173.599762,357.393738 
	C179.248352,355.925598 184.601334,356.648254 190.384094,356.743774 
	C196.634796,360.611359 197.843018,365.831085 196.087463,372.266449 
	C194.900070,376.619019 195.419113,381.168610 195.495438,385.626404 
	C195.665314,395.549957 194.818771,405.496796 196.119644,415.397217 
	C196.207596,416.066559 195.920898,416.691925 195.288727,417.616272 
z"/>
<path fill="#3C54BE" opacity="1.000000" stroke="none" 
	d="
M179.607086,89.334961 
	C186.326141,89.074203 192.681534,89.060768 199.503235,89.062309 
	C200.926529,90.114883 200.878815,91.392769 200.001709,92.211632 
	C197.057953,94.959869 197.379089,98.478386 197.465668,101.932022 
	C197.705978,111.517113 196.804504,121.130402 198.187836,130.689621 
	C198.376968,131.996582 198.245468,133.390259 198.993805,134.534256 
	C201.096817,137.749084 199.986755,140.125000 196.744370,142.230896 
	C190.530624,142.567490 184.728714,142.646729 178.499924,142.154144 
	C174.817276,138.606430 173.358047,134.606415 173.533646,129.853271 
	C173.962784,118.236076 172.697479,106.580727 174.517838,94.982185 
	C174.995361,91.939590 176.083038,90.001617 179.607086,89.334961 
z"/>
<path fill="#214FB7" opacity="1.000000" stroke="none" 
	d="
M138.286255,152.225113 
	C137.408188,150.979446 137.062759,149.507263 136.191650,149.060806 
	C130.199615,145.989777 130.942581,140.563919 130.978271,135.263336 
	C131.050812,124.488625 131.001877,113.713074 130.996765,102.937866 
	C130.996140,101.612099 131.374771,100.092979 130.865356,98.993469 
	C128.427582,93.731865 130.915451,91.196671 135.786743,89.412117 
	C140.648270,89.106674 145.340530,89.084846 150.495758,89.087997 
	C151.883698,90.128105 151.934967,91.387611 151.145233,92.303749 
	C148.123444,95.809158 148.339066,100.006729 148.488068,104.145569 
	C148.791397,112.571442 148.016357,120.973785 149.723862,129.447327 
	C150.620483,133.896866 149.708389,138.996109 148.568756,144.114655 
	C148.309006,145.318970 147.935425,146.029144 147.290588,147.040344 
	C144.829147,148.781158 141.955246,149.375626 140.402451,152.347275 
	C139.565857,152.665680 139.067780,152.646210 138.286255,152.225113 
z"/>
<path fill="#2A51B9" opacity="1.000000" stroke="none" 
	d="
M153.393066,417.958160 
	C146.613235,417.408722 145.752731,413.458710 145.894608,407.979919 
	C146.224304,395.248474 145.955948,382.502411 146.030533,369.762848 
	C146.049454,366.532410 145.322449,363.172974 147.729996,360.243683 
	C149.123734,358.547943 146.669250,357.808655 146.147278,356.222198 
	C150.613647,354.082031 154.530151,357.362030 159.255432,357.719421 
	C163.346558,358.544342 164.792297,360.425629 164.432953,364.458313 
	C163.198654,378.310699 163.509293,392.219879 163.389145,406.114319 
	C163.356796,409.855194 165.397781,413.558380 163.286285,417.635742 
	C159.947571,417.972321 156.900497,417.978424 153.393066,417.958160 
z"/>
<path fill="#3252BB" opacity="1.000000" stroke="none" 
	d="
M163.332901,417.982849 
	C161.252655,413.210388 160.899979,408.298462 160.958328,403.260040 
	C161.115479,389.691498 160.567078,376.094116 162.072723,362.584656 
	C162.407944,359.576813 159.482300,361.093140 159.290848,358.920074 
	C159.729904,357.984528 160.166031,357.734924 161.042145,357.507996 
	C162.714172,357.171448 163.962555,356.714661 165.691452,356.545288 
	C168.601898,356.730591 171.227493,355.873993 173.787720,357.784729 
	C175.688782,362.347168 176.138718,366.438995 175.830124,371.171844 
	C174.830475,386.503906 173.245285,401.951080 176.902710,417.595032 
	C174.941620,417.977478 172.888062,417.987427 170.394379,417.976959 
	C168.547760,417.072968 167.016479,417.630432 165.281662,417.773773 
	C164.573715,417.981995 164.122421,417.990723 163.332901,417.982849 
z"/>
<path fill="#4556BF" opacity="1.000000" stroke="none" 
	d="
M195.460129,417.980591 
	C193.302567,414.635345 192.910065,411.105927 192.956268,407.392151 
	C193.083908,397.131042 193.198318,386.861694 192.905060,376.607391 
	C192.788864,372.544189 195.172501,368.838226 193.611252,364.443970 
	C192.904846,362.455719 191.619064,360.787933 191.052673,358.453949 
	C196.630096,355.168732 202.474304,356.417542 208.636383,357.632324 
	C208.890076,358.989929 209.112366,360.674713 208.675568,360.867767 
	C201.941681,363.843018 206.959259,368.462280 206.961349,372.340607 
	C206.967010,382.815338 206.998840,393.290039 206.994522,403.764771 
	C206.992813,407.920868 206.852356,412.082153 207.957199,416.575256 
	C207.647385,417.569794 207.026276,417.470184 206.267349,417.767029 
	C202.668610,417.962708 199.293716,417.980103 195.460129,417.980591 
z"/>
<path fill="#2A50B9" opacity="1.000000" stroke="none" 
	d="
M147.309311,145.349380 
	C146.898666,129.515747 145.667999,114.042549 145.885345,98.520767 
	C145.942871,94.412262 146.889038,91.488403 150.790710,89.403214 
	C156.647446,89.097740 162.336151,89.082512 168.489410,89.089615 
	C170.298843,91.096664 169.037704,92.249260 167.513687,93.100365 
	C164.581055,94.738136 164.168747,97.276329 164.293259,100.331177 
	C164.768188,111.983253 164.313080,123.633995 164.035141,135.284714 
	C163.993851,137.015717 163.831436,138.594482 162.333862,140.233536 
	C157.229324,142.184952 153.319519,146.524368 147.309311,145.349380 
z"/>
<path fill="#4756C0" opacity="1.000000" stroke="none" 
	d="
M197.154419,141.315140 
	C197.312332,140.046463 198.060593,138.384583 197.908417,138.297592 
	C191.557343,134.666336 195.946045,128.797333 195.272339,124.174324 
	C193.825180,114.243874 196.205658,104.015945 193.934174,94.018372 
	C193.605301,92.570908 194.476028,91.892212 195.655136,91.429329 
	C197.008499,90.898041 198.680710,91.080177 199.801880,89.365219 
	C204.995834,89.065674 210.022141,89.054070 215.513824,89.056099 
	C217.035812,90.296127 216.832825,91.628593 215.889389,92.668335 
	C212.848083,96.020035 212.691986,100.205284 212.535385,104.300934 
	C212.301941,110.407295 212.436752,116.525948 212.487564,122.639305 
	C212.501343,124.298149 212.378525,126.122543 213.267700,127.486061 
	C216.383652,132.264359 215.063278,136.204239 211.138931,140.174316 
	C210.781204,140.714966 210.641830,140.929840 210.258209,141.433929 
	C209.221619,142.381149 208.271423,142.415939 207.020676,142.407135 
	C206.395111,142.415100 206.064362,142.458191 205.519043,142.723053 
	C205.120499,142.995255 204.944199,143.097458 204.459671,143.291260 
	C203.236115,143.501297 202.318665,143.482544 201.037140,143.366135 
	C199.521912,142.828766 198.274353,142.544937 197.154419,141.315140 
z"/>
<path fill="#5058C3" opacity="1.000000" stroke="none" 
	d="
M209.387512,140.501099 
	C209.316055,138.294586 210.464554,136.859558 211.577927,135.410538 
	C212.431641,134.299454 213.164490,132.959595 212.256210,131.762360 
	C209.003510,127.474869 210.114578,122.542328 210.035736,117.820770 
	C209.908630,110.209991 210.087097,102.604515 210.507431,94.992531 
	C210.713333,91.263519 214.219116,91.651840 215.821381,89.355621 
	C221.335846,89.056068 226.692490,89.042404 232.513565,89.047592 
	C231.519760,91.642227 228.809525,91.465813 226.448456,91.943634 
	C224.406769,92.356819 222.893463,92.975769 223.597946,95.492973 
	C226.558990,106.072838 225.061707,116.888786 224.626816,127.528442 
	C224.381897,133.520889 225.570145,139.362305 225.088715,145.750839 
	C225.163132,146.454193 225.217300,146.688690 225.044189,147.203583 
	C224.595673,147.578125 224.374420,147.672272 223.793152,147.782043 
	C218.648590,145.810089 213.317276,144.898529 209.387512,140.501099 
z"/>
<path fill="#3252BB" opacity="1.000000" stroke="none" 
	d="
M161.213120,140.529846 
	C161.517059,126.074478 163.049942,112.071556 161.282150,98.060211 
	C160.795639,94.204071 161.622543,91.467583 166.013550,90.977951 
	C167.021896,90.865517 167.956635,90.566292 168.774780,89.402382 
	C172.323242,89.089180 175.692474,89.066422 179.516235,89.065651 
	C175.860611,93.306755 176.335693,98.842476 176.105865,103.977226 
	C175.736267,112.234253 175.931702,120.520645 176.036697,128.792755 
	C176.076523,131.930634 175.081284,135.380936 179.220764,137.358582 
	C181.210342,138.309113 178.362137,139.277313 178.119568,140.682098 
	C172.468414,143.433350 166.935608,143.378494 161.213120,140.529846 
z"/>
<path fill="#2A51B9" opacity="1.000000" stroke="none" 
	d="
M165.435913,417.990051 
	C166.414536,417.048401 167.862411,416.851959 169.671051,417.790222 
	C168.585129,417.973328 167.215973,417.990112 165.435913,417.990051 
z"/>
<path fill="#3B54BD" opacity="1.000000" stroke="none" 
	d="
M206.408737,417.959167 
	C206.519989,417.679688 206.996506,417.414093 207.737427,417.070831 
	C208.239319,417.185760 208.462143,417.394012 208.819397,417.790405 
	C208.236954,417.966278 207.505463,417.969666 206.408737,417.959167 
z"/>
<path fill="#4E58C2" opacity="1.000000" stroke="none" 
	d="
M232.260010,417.970276 
	C232.247437,417.812866 232.486877,417.772034 232.854553,417.903564 
	C232.966187,417.962402 232.495438,417.973328 232.260010,417.970276 
z"/>
<path fill="#5959C5" opacity="1.000000" stroke="none" 
	d="
M238.584595,213.894989 
	C241.476685,215.419846 241.250763,218.086884 241.319443,220.191895 
	C241.922729,238.683380 242.807968,257.171082 241.142075,275.679169 
	C240.797623,279.505981 237.685455,280.688354 236.182770,283.692993 
	C233.684799,285.869507 231.344452,284.336090 228.629684,283.737152 
	C223.009933,278.131836 222.527573,272.104858 223.130112,264.647003 
	C224.153870,251.975510 224.275177,239.108994 222.751190,226.351669 
	C222.358902,223.067734 222.270432,219.706161 223.865326,216.132172 
	C228.530396,213.336670 233.523254,214.915909 238.584595,213.894989 
z"/>
<path fill="#6E5DCC" opacity="1.000000" stroke="none" 
	d="
M280.279358,416.637146 
	C275.328491,416.978943 270.644073,416.984192 265.497375,416.983398 
	C261.435547,409.216919 259.596375,401.297791 260.875488,392.559418 
	C262.061981,384.453888 259.613403,376.048462 262.460693,367.974274 
	C262.940857,366.612732 261.859467,365.475281 261.263519,364.308197 
	C259.753906,361.351776 259.677704,358.608551 262.832916,356.183960 
	C266.104095,357.296997 269.127350,356.887634 272.186737,356.575134 
	C273.927826,356.397247 275.765839,356.217773 277.711029,357.471985 
	C278.730530,359.116699 279.426361,360.619476 278.943451,362.062744 
	C275.787415,371.495178 278.175781,381.186920 277.488556,390.728638 
	C277.274017,393.707794 277.668518,396.736145 277.269226,399.698761 
	C276.756348,403.504150 277.614197,406.913666 279.326599,410.273499 
	C280.264465,412.113617 281.856171,413.952515 280.279358,416.637146 
z"/>
<path fill="#8677C3" opacity="1.000000" stroke="none" 
	d="
M277.389771,358.391357 
	C274.389832,357.796722 271.809723,358.292206 269.210052,358.735474 
	C266.965515,359.118225 264.950836,358.592743 263.348816,356.322693 
	C263.134766,286.756470 263.115112,217.471268 263.098145,148.186066 
	C263.097534,145.666183 263.044647,143.118332 265.788147,141.246857 
	C268.057617,138.043533 270.983093,138.181564 274.432739,138.707031 
	C279.014679,138.662567 283.162231,138.369598 287.760071,138.794250 
	C293.058136,138.506775 297.906281,138.395767 303.205261,138.790894 
	C308.119751,138.665955 312.576141,138.384598 317.460693,138.234177 
	C324.646088,139.439316 331.310364,138.012100 338.442261,137.685501 
	C344.254730,139.218155 349.748383,138.229126 355.631195,138.532959 
	C357.862976,138.903885 359.820190,138.733932 361.450928,140.672913 
	C361.837189,141.734131 361.821564,142.370544 361.385559,143.419495 
	C358.395355,146.083237 355.092834,145.402405 352.010681,145.415848 
	C328.189240,145.519730 304.367310,145.457672 280.545532,145.473816 
	C278.381042,145.475281 276.213165,145.411819 274.056213,145.674286 
	C270.204895,146.142914 268.094116,148.320480 267.659729,152.164276 
	C267.434509,154.157150 267.474457,156.156662 267.474243,158.154617 
	C267.467407,219.458237 267.467773,280.761841 267.471710,342.065460 
	C267.471741,342.898376 267.467163,343.731476 267.485352,344.564178 
	C267.656006,352.370605 269.567657,354.392944 277.266907,354.493561 
	C286.594543,354.615448 295.924225,354.523895 305.253021,354.530121 
	C323.577454,354.542328 341.902039,354.482513 360.226166,354.576385 
	C363.007202,354.590607 365.933319,354.143463 368.745728,356.349640 
	C369.366302,359.654053 367.182281,359.898590 365.213959,360.162079 
	C362.240906,360.560120 359.249176,360.536682 355.795349,359.934174 
	C350.554901,359.976013 345.791931,360.887604 340.579010,359.779480 
	C335.413055,361.056000 330.758209,359.753296 325.619904,359.672485 
	C322.064423,360.294952 318.969269,360.594177 315.388550,359.871368 
	C309.961548,360.496307 305.014923,360.139832 299.605225,359.676025 
	C296.041901,360.322174 292.923920,360.518768 289.305725,360.221313 
	C285.082794,360.091522 281.145325,361.363525 277.389771,358.391357 
z"/>
<path fill="#6E5DCC" opacity="1.000000" stroke="none" 
	d="
M274.361389,140.670975 
	C271.642456,141.013290 269.243683,141.030609 266.464569,141.037735 
	C259.483490,138.012009 259.496033,138.015732 261.566803,131.025894 
	C262.410126,128.179321 260.975189,125.474586 260.973419,122.653595 
	C260.968170,114.192482 260.944977,105.723877 260.568970,97.274200 
	C260.419312,93.911385 263.477356,93.562889 264.872009,91.290138 
	C268.709259,90.986191 272.395691,90.980896 276.542908,90.979172 
	C279.960022,93.408241 280.728577,96.185677 278.783569,99.706848 
	C277.654968,101.750031 277.487457,104.139999 277.510406,106.467934 
	C277.601532,115.712730 276.929810,124.978996 277.925110,134.194168 
	C278.253174,137.231506 276.618713,138.751968 274.361389,140.670975 
z"/>
<path fill="#6766A9" opacity="1.000000" stroke="none" 
	d="
M228.670563,282.674316 
	C231.094925,283.283539 233.175186,283.559082 235.638306,283.916382 
	C238.334137,285.083130 239.443069,286.761139 239.402252,289.456268 
	C239.207291,302.328522 239.147720,315.202850 239.046326,328.546021 
	C239.029785,329.459930 239.013260,329.904480 238.999420,330.682922 
	C238.980499,331.734283 238.965302,332.452026 238.952881,333.528687 
	C237.394836,335.865417 237.493134,338.696289 235.333984,340.737213 
	C231.577972,347.203766 226.315460,351.656769 220.185181,355.708740 
	C218.866623,356.232361 217.783127,356.515320 216.369614,356.864807 
	C215.434692,356.363586 214.698196,355.907990 214.404022,354.633545 
	C214.592133,352.975098 215.317154,352.112854 216.439453,351.598846 
	C230.823517,345.011444 234.792282,332.439026 235.451752,318.123596 
	C235.795151,310.669678 235.641342,303.191620 235.486816,295.727905 
	C235.361115,289.655243 233.387543,287.649048 227.345322,287.521942 
	C220.879166,287.385895 214.403076,287.253754 207.940491,287.656647 
	C206.257019,287.761536 204.626358,288.068848 203.043564,286.348816 
	C202.561707,285.022369 202.888779,284.219452 203.869110,283.217682 
	C210.213867,280.454071 216.469025,280.253326 222.787323,280.630005 
	C224.756958,280.747437 226.817886,280.680969 228.670563,282.674316 
z"/>
<path fill="#6C6DAD" opacity="1.000000" stroke="none" 
	d="
M239.148270,213.642075 
	C235.072418,217.254395 230.317581,215.445770 225.491547,216.086365 
	C222.663177,218.807220 219.420380,218.326187 216.362335,218.439468 
	C213.914291,218.530136 211.461319,218.483307 208.540680,218.633118 
	C205.120804,218.965515 202.965424,218.117767 202.534378,214.384262 
	C204.314545,211.564499 206.908920,211.678070 209.369827,211.606262 
	C215.340729,211.432053 221.318039,211.668396 227.287766,211.484100 
	C233.341537,211.297211 235.210892,209.370041 235.495041,203.285156 
	C236.131973,189.646423 234.935562,176.135315 232.772903,162.293518 
	C233.120132,161.651367 233.305954,161.421326 233.885651,160.987305 
	C238.275574,162.299530 237.346710,166.453232 238.940430,169.675903 
	C239.115005,184.460052 239.193665,198.875656 239.148270,213.642075 
z"/>
<path fill="#5959C5" opacity="1.000000" stroke="none" 
	d="
M235.391296,340.908875 
	C235.739044,338.517792 236.417389,336.066925 238.668732,334.064087 
	C238.688705,335.354126 238.421753,336.820618 238.073486,338.649231 
	C237.220871,339.616852 236.449585,340.222351 235.391296,340.908875 
z"/>
<path fill="#5959C5" opacity="1.000000" stroke="none" 
	d="
M239.115387,330.831665 
	C238.931030,330.470306 238.866379,329.924011 238.927185,329.196655 
	C239.113480,329.559326 239.174286,330.103027 239.115387,330.831665 
z"/>
<path fill="#4E58C2" opacity="1.000000" stroke="none" 
	d="
M248.889740,417.880066 
	C248.841110,417.940430 248.665176,417.943970 248.225067,417.946533 
	C248.213867,417.794525 248.481049,417.753815 248.889740,417.880066 
z"/>
<path fill="#315096" opacity="1.000000" stroke="none" 
	d="
M137.780670,152.236298 
	C138.416031,151.959290 138.835205,151.941559 139.835876,152.304459 
	C141.028198,155.417892 139.435486,157.506714 138.226746,159.626450 
	C134.926697,165.413681 133.458191,171.600128 133.460281,178.239822 
	C133.475327,225.797104 133.463379,273.354370 133.468231,320.911652 
	C133.468582,324.255737 133.832855,327.545074 134.520325,330.810944 
	C134.895721,332.594391 135.397842,334.397552 134.044250,336.506744 
	C133.439331,337.015961 133.154297,337.165131 132.399445,337.203949 
	C129.885925,332.295990 128.919586,327.347290 128.928619,322.075745 
	C129.009140,275.161377 129.087036,228.246307 128.884354,181.332657 
	C128.838318,170.674957 130.573471,160.878098 137.780670,152.236298 
z"/>
<path fill="#3355A0" opacity="1.000000" stroke="none" 
	d="
M131.950378,337.480164 
	C132.126495,337.072418 132.323334,337.051239 132.815964,337.003540 
	C136.277954,335.873718 137.166138,338.516205 138.349686,340.345123 
	C142.015640,346.010132 146.945389,349.974030 153.689636,352.208679 
	C154.446091,352.538055 154.872726,352.741730 155.621307,353.104309 
	C156.160431,353.367584 156.374451,353.478546 156.910294,353.761322 
	C158.660095,354.990295 159.886108,356.154785 159.265350,358.472534 
	C159.040512,358.763702 159.019287,358.886932 159.009644,358.948822 
	C154.734116,358.839325 150.791595,357.300232 146.397339,356.025513 
	C144.105087,353.342804 141.449005,351.677704 138.367676,350.038879 
	C136.109482,349.467896 134.584091,348.568054 134.121979,346.072083 
	C133.727875,345.368805 133.546661,344.948273 133.221252,344.221985 
	C132.677292,341.913086 132.324203,339.889893 131.950378,337.480164 
z"/>
<path fill="#204FB7" opacity="1.000000" stroke="none" 
	d="
M133.018021,344.199738 
	C133.288483,344.137146 133.526505,344.359497 133.895996,344.794983 
	C133.877472,345.114716 133.707458,345.242767 133.273697,345.190918 
	C133.009949,345.010986 133.001404,345.001617 132.995956,344.996033 
	C132.995560,344.814667 133.000595,344.638916 133.018021,344.199738 
z"/>
<path fill="#B86BE1" opacity="1.000000" stroke="none" 
	d="
M384.635223,89.448318 
	C389.403473,89.268837 393.752441,89.273735 398.561157,89.355339 
	C400.034180,90.235069 400.477478,91.327477 400.140442,92.532654 
	C398.391632,98.786079 399.528351,105.142097 399.522888,111.433434 
	C399.443787,202.246033 399.515930,293.058777 399.376343,383.871216 
	C399.365112,391.164917 400.918030,398.466614 399.363251,405.767975 
	C399.032318,407.321960 399.736572,408.742310 400.878296,409.824799 
	C402.507721,411.369690 402.868958,413.206787 402.213745,415.749481 
	C401.900208,416.474884 401.752014,416.754974 401.277618,417.380737 
	C397.272736,417.731323 393.594086,417.736206 389.459808,417.675415 
	C383.230713,414.390503 380.840393,409.676819 382.444214,403.089691 
	C382.877167,401.311432 382.671509,399.447174 382.624084,397.614441 
	C382.030182,374.661926 381.842773,351.664154 382.146515,328.749878 
	C382.675568,288.835632 382.441742,248.928101 382.330353,209.024704 
	C382.280670,191.246353 382.735443,173.471207 382.475922,155.699524 
	C382.226257,138.604630 382.959991,121.515938 382.528351,104.425629 
	C382.431213,100.579231 383.133759,96.800262 383.222687,92.515816 
	C383.135681,91.078156 383.390106,90.236153 384.635223,89.448318 
z"/>
<path fill="#C66BE6" opacity="1.000000" stroke="none" 
	d="
M411.522949,94.851334 
	C412.430023,95.273499 412.909546,95.546303 413.619263,95.972099 
	C413.964752,96.424698 414.080109,96.724304 414.215393,97.506126 
	C419.825104,104.130310 419.022766,111.683472 419.020233,119.120941 
	C418.989136,210.937897 418.995483,302.754852 419.018646,394.571808 
	C419.019501,397.929382 418.980957,401.238068 417.325287,404.799316 
	C416.982269,406.562805 416.409973,407.671692 415.242432,408.808899 
	C414.695770,408.912018 414.388702,408.808136 413.637634,408.504822 
	C406.032867,406.632263 404.414642,401.874390 404.426147,394.965302 
	C404.573456,306.498596 404.510590,218.031494 404.567413,129.564560 
	C404.574677,118.224083 404.316437,106.937958 402.258057,95.310303 
	C405.206146,90.157616 408.179901,94.156021 411.522949,94.851334 
z"/>
<path fill="#C06AE3" opacity="1.000000" stroke="none" 
	d="
M404.174744,93.727531 
	C406.827637,104.030365 407.021851,114.304176 407.018219,124.621979 
	C406.986603,214.032593 407.054443,303.443329 406.889069,392.853638 
	C406.876801,399.484406 407.331390,405.031616 414.816559,407.637177 
	C414.359833,408.565765 413.907776,409.327942 413.134399,410.246857 
	C411.410034,412.102509 408.276459,410.221222 407.177002,413.330231 
	C406.213287,414.466034 405.112823,414.936218 404.274872,416.160889 
	C403.957672,416.701508 403.702942,416.858246 403.205139,417.039795 
	C402.547668,417.406158 402.061035,417.522064 401.285522,417.165863 
	C401.294586,413.954895 400.033234,412.345490 397.188477,411.362305 
	C393.955719,410.244934 393.214966,407.752808 395.561127,405.121246 
	C397.562927,402.875977 397.892395,400.620361 397.335663,397.769348 
	C396.863068,395.349304 397.011078,392.793579 397.010742,390.297882 
	C396.998077,295.966888 397.002594,201.635895 396.988678,107.304893 
	C396.988220,104.162193 397.257751,101.016365 395.824219,97.981438 
	C394.136383,94.407967 398.768646,93.067551 398.971497,89.751411 
	C399.426910,89.375076 399.832977,89.318115 400.546875,89.257271 
	C401.418610,89.563698 401.961639,89.909637 402.754211,90.452362 
	C403.680450,91.483887 404.607666,92.177475 404.174744,93.727531 
z"/>
<path fill="#B368DF" opacity="1.000000" stroke="none" 
	d="
M383.629822,90.720528 
	C387.635864,91.130180 388.480286,92.597542 386.465118,95.743317 
	C385.773132,96.823570 385.173767,98.199959 385.166290,99.444870 
	C385.099365,110.596046 384.480896,121.756020 385.484924,132.896408 
	C385.589264,134.054199 386.107819,135.299622 385.833801,136.347351 
	C382.950623,147.370880 385.216553,158.519302 385.139160,169.578522 
	C384.810883,216.481216 385.000244,263.387543 385.000397,310.292542 
	C385.000488,337.158112 385.043823,364.023773 384.963074,390.889099 
	C384.947205,396.164185 386.100800,401.412842 384.526398,406.751923 
	C383.277008,410.988708 387.955261,413.315002 388.957458,417.288605 
	C387.274933,417.660400 385.545654,417.711090 383.386230,417.703705 
	C375.582581,414.556030 374.089722,411.228851 374.419067,403.472198 
	C374.891235,392.350250 374.670380,381.193207 374.384613,370.053162 
	C374.359009,369.055084 374.277222,367.849060 373.592072,367.212738 
	C369.956604,363.835846 371.286621,360.075775 372.589325,355.859375 
	C372.843811,354.583466 373.176239,353.782715 373.791626,352.624207 
	C377.798676,348.518311 376.558533,343.840546 376.103699,339.502472 
	C375.817688,336.774567 375.762360,334.237518 376.350677,331.555420 
	C377.137207,327.969940 377.277130,324.341858 375.684113,320.827667 
	C374.336670,317.855225 374.548492,314.638672 374.546661,311.479767 
	C374.525299,274.849365 374.427032,238.218262 374.645172,201.589188 
	C374.682373,195.347549 373.071411,189.418152 372.674957,183.287476 
	C372.514709,180.809830 372.834442,178.764053 374.069214,176.696609 
	C376.495453,172.634293 377.242615,168.206024 375.791809,163.717773 
	C374.076111,158.409958 374.221161,152.998947 374.676514,147.647766 
	C374.932220,144.642792 374.604950,142.045883 372.979889,139.674484 
	C371.318085,137.249481 371.150085,134.960403 372.590393,132.397583 
	C374.270203,129.408707 374.631622,126.083664 374.509247,122.729126 
	C374.146912,112.794617 375.219727,102.859863 374.474854,92.925949 
	C374.424988,92.260643 374.802490,91.649635 375.482452,90.761353 
	C378.297943,89.774742 380.772736,89.796860 383.629822,90.720528 
z"/>
<path fill="#9463D7" opacity="1.000000" stroke="none" 
	d="
M339.237122,139.808884 
	C332.211548,140.619583 325.473419,141.859909 318.308838,140.292023 
	C316.433228,135.197891 316.904999,130.086151 316.634125,125.069839 
	C316.116638,115.487099 317.094666,105.859039 316.065704,96.282471 
	C315.653656,92.447586 318.517822,91.664726 321.433990,90.308617 
	C323.001709,90.004341 324.153595,89.949394 325.651855,90.602814 
	C331.342377,89.780548 336.632263,88.527512 342.576691,89.113739 
	C343.884949,89.642731 345.258026,89.447151 345.409668,91.268082 
	C341.347351,94.743744 340.970245,98.867706 341.327148,103.590469 
	C341.777649,109.551704 341.515808,115.567932 341.411011,121.558693 
	C341.341553,125.530434 341.001984,129.344482 343.164734,133.159653 
	C345.011841,136.417999 342.245514,138.249802 339.237122,139.808884 
z"/>
<path fill="#9563D7" opacity="1.000000" stroke="none" 
	d="
M324.721466,358.356445 
	C329.700043,358.062073 334.389008,358.053406 339.544525,358.060303 
	C343.090515,360.030640 344.512573,362.382507 342.203400,365.917023 
	C341.382324,367.173828 341.300354,368.758911 341.366730,370.275543 
	C341.802826,380.242249 340.826385,390.239044 342.005920,400.189819 
	C342.164612,401.528351 342.083038,402.853180 341.642487,404.132355 
	C340.651337,407.010315 341.447754,409.296265 343.750397,411.237244 
	C345.590942,412.788757 347.217957,414.525848 345.304016,417.483826 
	C340.251923,418.458374 335.563843,417.484985 330.418793,417.058533 
	C329.318970,416.227142 328.314362,415.956696 327.404572,415.667725 
	C319.090942,413.027435 318.161804,411.607849 319.828888,403.178192 
	C320.458313,399.995483 319.554810,396.917419 319.558868,393.782593 
	C319.566589,387.822083 319.851837,381.842010 319.470215,375.905762 
	C319.055328,369.451782 321.548889,364.039764 324.721466,358.356445 
z"/>
<path fill="#A065D9" opacity="1.000000" stroke="none" 
	d="
M339.372894,140.168579 
	C340.885529,136.824890 342.254944,133.649124 338.675446,130.463440 
	C338.115906,129.965469 338.161438,128.557556 338.247803,127.599289 
	C339.204254,116.986115 339.774292,106.435928 337.673096,95.823074 
	C336.658203,90.697044 341.970337,92.590813 344.667725,91.032028 
	C345.643921,90.039841 346.775146,90.067680 347.800293,89.320351 
	C351.232178,88.997177 354.361420,89.345428 357.744446,90.501038 
	C361.784882,93.588150 361.788605,96.978973 361.141632,101.609413 
	C359.790039,111.282814 359.669617,121.178619 361.354614,130.909470 
	C362.250519,136.083511 361.761780,137.429810 356.331970,139.875732 
	C350.574646,141.673126 345.181183,141.256897 339.372894,140.168579 
z"/>
<path fill="#A767DA" opacity="1.000000" stroke="none" 
	d="
M375.068909,352.565521 
	C374.990753,353.746857 374.990173,354.496460 374.987915,355.620850 
	C368.794250,361.479950 370.645996,369.310303 369.708618,376.072021 
	C368.281799,386.364044 370.178864,396.847351 369.858704,407.260406 
	C369.799377,409.190552 370.830994,410.728790 371.968353,412.181824 
	C373.166077,413.712036 373.908081,415.293152 372.313171,417.407501 
	C371.562744,417.709381 371.108307,417.745972 370.311829,417.785889 
	C367.586548,416.484650 365.105774,416.907745 362.327637,417.552216 
	C361.586578,417.731201 361.140442,417.732544 360.359985,417.719116 
	C358.529541,416.348755 356.573273,415.691956 355.011505,414.465088 
	C352.917297,412.819946 350.719910,411.120117 350.902039,408.031281 
	C351.508636,397.744965 350.173462,387.492218 350.451050,377.197845 
	C350.585083,372.227478 352.560242,367.446442 351.537354,362.367126 
	C351.170868,360.547180 353.066254,359.590027 354.691376,358.317383 
	C359.393646,357.692108 363.848480,358.499207 368.585144,357.267151 
	C368.718414,356.765198 368.508667,356.421906 368.213348,355.778992 
	C368.052704,355.076721 368.076355,354.666046 368.251068,353.953674 
	C368.450165,353.229950 368.557800,352.809326 368.743225,352.057190 
	C368.937225,351.263123 369.036987,350.796783 369.186340,349.948120 
	C369.568268,340.692505 370.200409,331.808350 368.541077,322.558624 
	C368.739929,321.844757 368.856079,321.566681 369.257111,320.928711 
	C370.998596,319.544708 372.446564,319.640228 374.252808,320.881165 
	C374.793030,321.407013 374.968323,321.654053 375.309998,322.319702 
	C376.649384,326.023010 377.264893,329.256195 376.021851,332.761932 
	C375.203217,335.070709 375.974426,337.553864 376.215851,339.979889 
	C376.621765,344.058319 376.903076,348.209106 375.068909,352.565521 
z"/>
<path fill="#9E66DA" opacity="1.000000" stroke="none" 
	d="
M354.525940,358.020355 
	C354.405151,372.357605 351.897705,386.470917 353.773468,401.089966 
	C354.583710,407.404663 355.502197,412.258698 359.814301,416.572418 
	C359.912628,416.670746 359.892120,416.887878 359.976318,417.377014 
	C355.332703,417.759460 350.639771,417.814514 345.483948,417.817993 
	C344.910187,414.612274 342.519714,413.245239 340.262207,411.859253 
	C337.364532,410.080261 336.389618,407.976990 338.372894,404.849579 
	C339.050079,403.781738 339.691772,402.319794 339.531097,401.150391 
	C338.101532,390.746918 339.916687,380.246155 338.487732,369.859802 
	C338.246674,368.107544 338.481781,366.419220 339.550323,365.138580 
	C341.308777,363.031158 341.116272,360.954437 340.051819,358.394409 
	C344.694397,358.051788 349.377716,358.027710 354.525940,358.020355 
z"/>
<path fill="#7F60D0" opacity="1.000000" stroke="none" 
	d="
M304.341980,140.657669 
	C299.001099,140.994354 293.980225,141.000381 288.494324,140.997406 
	C284.953094,138.311874 284.801086,134.627823 284.665039,130.983261 
	C284.220886,119.084831 285.108582,107.160393 283.970001,95.272820 
	C283.810394,93.606476 283.909851,91.939972 285.687683,90.395950 
	C291.379791,90.064117 296.732025,90.055733 302.552917,90.063385 
	C305.843628,92.654694 306.273834,96.149185 306.347717,99.607994 
	C306.608765,111.828949 306.539795,124.052292 306.133423,136.271606 
	C306.083008,137.787094 305.898987,139.245941 304.341980,140.657669 
z"/>
<path fill="#7F60D0" opacity="1.000000" stroke="none" 
	d="
M288.695679,358.374481 
	C292.060852,358.059418 295.093170,358.053680 298.580933,358.063690 
	C304.428467,359.689697 305.104706,363.706329 304.300537,368.450195 
	C302.378967,379.784912 304.519684,391.309753 302.681152,402.653320 
	C302.295624,405.031921 303.610718,407.153107 304.107635,409.400726 
	C304.621948,411.727020 306.021149,414.204529 303.306732,416.639526 
	C298.986877,416.942749 294.962341,416.955902 290.475311,416.962219 
	C285.331329,412.740601 283.698334,407.178619 284.039124,401.238525 
	C284.677734,390.107178 285.050812,378.983368 283.880432,367.898285 
	C283.423431,363.570312 285.290161,360.984375 288.695679,358.374481 
z"/>
<path fill="#8962D3" opacity="1.000000" stroke="none" 
	d="
M304.478577,140.995483 
	C304.014557,128.308701 303.791962,115.623489 304.121735,102.952644 
	C304.230499,98.774132 301.853302,94.971169 302.985046,90.436951 
	C306.090851,89.963860 309.156372,89.900658 312.551453,90.813301 
	C315.642303,89.454346 318.456909,89.927139 321.633423,90.691620 
	C318.814880,93.221680 318.647858,96.218124 318.848694,99.891815 
	C319.281311,107.805969 319.001740,115.759529 318.996002,123.696945 
	C318.993744,126.839401 318.849335,129.958328 320.747559,132.777725 
	C323.005249,136.130966 318.695160,137.094727 318.041290,139.785690 
	C313.663208,141.342834 309.285614,140.973572 304.478577,140.995483 
z"/>
<path fill="#775FCE" opacity="1.000000" stroke="none" 
	d="
M288.565491,358.044495 
	C283.893127,372.729034 288.721436,387.969910 286.550812,402.876373 
	C285.941193,407.062866 288.709686,411.741333 289.970734,416.574768 
	C286.981445,416.965912 283.950104,416.976440 280.465820,416.980347 
	C274.765991,409.707764 274.149414,401.682190 274.791992,392.923096 
	C275.420135,384.360687 275.817078,375.620331 274.152069,367.039246 
	C273.503204,363.695221 277.649658,362.117767 277.025696,358.446075 
	C280.730316,358.046356 284.416382,358.035126 288.565491,358.044495 
z"/>
<path fill="#8C62D5" opacity="1.000000" stroke="none" 
	d="
M324.556335,358.053162 
	C327.404419,360.915314 327.999268,363.287628 324.144653,365.705902 
	C322.168671,366.945618 321.949463,369.692230 322.026337,372.073212 
	C322.324951,381.319336 321.201569,390.603973 322.795105,399.818909 
	C322.959930,400.772156 323.071350,401.954193 322.663483,402.751892 
	C319.626099,408.692474 322.247681,412.063171 327.622559,414.408783 
	C328.457886,414.773346 329.035217,415.729156 329.860596,416.725952 
	C325.637787,417.014954 321.286224,416.989532 316.470642,416.950806 
	C314.425751,415.294403 312.074402,414.863892 310.426422,413.236053 
	C307.905182,410.745728 306.110199,408.280121 307.871979,404.514740 
	C308.794342,402.543365 308.613617,400.298798 308.559814,398.145691 
	C308.283264,387.080231 308.957428,376.013000 308.474396,364.947235 
	C308.296417,360.870453 311.961487,360.293182 314.710327,358.345978 
	C318.044678,358.061310 321.073151,358.048462 324.556335,358.053162 
z"/>
<path fill="#AB67DD" opacity="1.000000" stroke="none" 
	d="
M356.297913,140.244263 
	C358.535583,136.394745 358.657135,132.624496 358.395569,127.948608 
	C357.835114,117.930092 356.539703,107.694580 359.300690,97.709557 
	C359.940857,95.394371 357.715485,93.702293 358.078247,91.070335 
	C359.686920,90.686302 361.293823,90.708534 363.302704,90.752930 
	C366.092163,89.551476 368.639252,90.089104 371.593506,90.215889 
	C375.004181,93.273537 375.831787,96.472580 374.340088,100.622513 
	C372.695892,105.196671 373.344696,110.142891 373.523895,114.910782 
	C373.844666,123.444138 372.925476,131.834030 371.214935,140.602554 
	C368.031982,143.972931 364.886322,140.791748 361.419495,141.142700 
	C359.545532,140.802567 358.094788,140.585632 356.297913,140.244263 
z"/>
<path fill="#B86BE1" opacity="1.000000" stroke="none" 
	d="
M417.426758,404.992126 
	C418.276459,398.488983 417.990723,391.662567 417.991211,384.850616 
	C417.998108,294.151672 417.996979,203.452713 417.990417,112.753761 
	C417.990082,108.290192 418.639496,103.642624 413.352570,101.133453 
	C411.862549,100.426292 411.826477,98.660484 413.477661,97.151802 
	C413.960571,96.828690 414.179321,96.681137 414.729797,96.749428 
	C418.264313,101.198196 419.993652,105.830254 419.990448,111.276314 
	C419.934448,206.258759 419.957062,301.241272 419.970551,396.223755 
	C419.971008,399.273163 419.694641,402.225861 417.426758,404.992126 
z"/>
<path fill="#8562D2" opacity="1.000000" stroke="none" 
	d="
M314.548065,358.056091 
	C310.168701,365.194641 311.357422,373.394562 311.076019,381.261688 
	C310.840179,387.855865 312.865479,394.974365 310.992035,400.952667 
	C308.726105,408.183380 312.445587,411.780579 315.953125,416.599487 
	C311.982758,416.946320 307.958893,416.955139 303.473236,416.946777 
	C302.963898,416.267548 303.052521,415.560089 302.848938,414.950134 
	C297.884216,400.075134 301.930420,384.976440 301.631836,369.987152 
	C301.555420,366.148651 302.142548,361.979126 299.085205,358.395294 
	C304.050873,358.065643 309.065399,358.051849 314.548065,358.056091 
z"/>
<path fill="#775FCE" opacity="1.000000" stroke="none" 
	d="
M285.600647,90.054543 
	C288.031067,106.704552 286.056519,123.494217 288.020050,140.558289 
	C283.673157,140.999664 279.317047,141.010941 274.501099,141.009094 
	C276.413818,131.818100 274.350830,122.488289 274.985748,113.248604 
	C275.368622,107.677635 274.017609,101.949059 277.113770,96.631226 
	C277.814484,95.427673 277.091888,93.395439 277.014069,91.363693 
	C279.676483,90.230980 282.392365,89.851051 285.600647,90.054543 
z"/>
<path fill="#AE67DD" opacity="1.000000" stroke="none" 
	d="
M372.470764,417.742615 
	C371.993805,417.508453 372.032806,417.273773 371.938141,417.189758 
	C365.108337,411.128326 367.486542,402.921692 367.105896,395.478821 
	C366.708008,387.698975 366.278625,379.773102 367.339142,372.115448 
	C368.116119,366.505096 367.677429,359.564728 374.680969,356.126953 
	C374.945801,357.545715 374.376831,358.890869 373.455383,360.122620 
	C372.794708,361.005768 372.481232,362.197205 373.649048,362.652252 
	C377.913361,364.313934 376.880371,367.947357 376.985413,371.129333 
	C377.324524,381.398956 377.896881,391.824097 377.054932,401.903046 
	C376.471344,408.889435 379.211121,412.652283 382.824463,417.375488 
	C379.612152,417.701233 376.268219,417.756805 372.470764,417.742615 
z"/>
<path fill="#9C75DD" opacity="1.000000" stroke="none" 
	d="
M372.364380,91.281815 
	C369.552216,90.975922 367.100250,90.928581 364.176483,90.828171 
	C365.568207,88.392921 368.236481,89.101013 370.649994,89.063728 
	C375.136871,88.994400 379.626373,89.093819 384.584625,89.193466 
	C384.789673,89.695038 384.524872,90.126129 384.135559,90.779480 
	C381.639526,91.005211 379.267914,91.008690 376.452454,91.016960 
	C375.019196,91.861191 373.936218,92.108177 372.364380,91.281815 
z"/>
<path fill="#C66BE6" opacity="1.000000" stroke="none" 
	d="
M406.203979,413.266388 
	C405.961304,407.832520 408.478973,407.676514 412.498169,409.930298 
	C413.026215,410.150269 413.232513,410.262360 413.235779,410.662231 
	C412.296387,412.372101 411.198578,413.393494 409.373779,414.045532 
	C408.161804,413.976532 407.205719,414.112274 406.203979,413.266388 
z"/>
<path fill="#B86BE1" opacity="1.000000" stroke="none" 
	d="
M404.368469,94.014374 
	C403.399628,93.224030 402.798248,92.445076 402.085754,91.392181 
	C402.212158,90.462173 402.721344,90.179703 403.687164,90.112137 
	C406.762634,91.158775 409.495270,92.249924 411.786194,94.709137 
	C409.310730,96.413971 407.232941,93.668701 404.368469,94.014374 
z"/>
<path fill="#775FCE" opacity="1.000000" stroke="none" 
	d="
M322.400421,90.992851 
	C319.282166,90.979607 316.568085,90.961143 313.399445,90.918762 
	C317.007294,87.771812 321.276428,88.617683 325.807800,90.528458 
	C324.954742,90.876099 323.879700,90.931862 322.400421,90.992851 
z"/>
<path fill="#9E66DA" opacity="1.000000" stroke="none" 
	d="
M362.468872,417.793152 
	C364.396851,415.277435 366.933533,415.444458 369.773438,417.511047 
	C367.614868,417.811646 365.259949,417.834045 362.468872,417.793152 
z"/>
<path fill="#B86BE1" opacity="1.000000" stroke="none" 
	d="
M405.743286,413.200897 
	C406.844849,413.231171 407.684937,413.476837 408.789917,413.925507 
	C407.891632,415.310394 406.422943,415.915039 404.522644,416.421570 
	C404.210938,415.298523 404.539246,414.227783 405.743286,413.200897 
z"/>
<path fill="#775FCE" opacity="1.000000" stroke="none" 
	d="
M347.622437,89.111481 
	C347.540649,90.126556 346.757172,90.709503 345.351837,90.896576 
	C344.504974,90.452255 343.966492,89.967155 343.232025,89.299034 
	C344.425812,89.102539 345.815552,89.089073 347.622437,89.111481 
z"/>
<path fill="#9C75DD" opacity="1.000000" stroke="none" 
	d="
M403.735107,89.910675 
	C403.502045,90.392838 403.006714,90.660057 402.242981,91.022766 
	C401.671844,90.662743 401.369049,90.207237 400.960480,89.502563 
	C401.727386,89.400833 402.600128,89.548279 403.735107,89.910675 
z"/>
<path fill="#B368DF" opacity="1.000000" stroke="none" 
	d="
M413.290588,410.832581 
	C413.032745,410.949951 412.926178,410.494202 412.873047,410.266174 
	C413.356537,409.428223 413.893158,408.818268 414.705933,408.069946 
	C414.989685,408.112213 414.997284,408.292816 415.003845,408.744629 
	C414.518005,409.582306 414.033203,410.148743 413.290588,410.832581 
z"/>
<path fill="#9E66DA" opacity="1.000000" stroke="none" 
	d="
M401.013214,417.084076 
	C401.474030,416.918610 401.909332,416.966797 402.668457,417.064270 
	C402.494690,417.321014 401.997162,417.528381 401.225525,417.731079 
	C400.951416,417.726440 400.987732,417.297699 401.013214,417.084076 
z"/>
<path fill="#9C75DD" opacity="1.000000" stroke="none" 
	d="
M414.889343,96.785416 
	C414.842590,96.971535 414.623657,96.977783 414.073273,96.980133 
	C413.741821,96.976250 413.804077,96.550934 413.826752,96.338013 
	C414.174042,96.221413 414.463287,96.381561 414.889343,96.785416 
z"/>
<path fill="#6C6DAD" opacity="1.000000" stroke="none" 
	d="
M227.962952,152.991974 
	C232.634262,153.271591 233.789474,156.332184 234.216888,160.408752 
	C234.279541,160.783310 234.095215,160.920975 234.004440,160.991608 
	C229.231155,161.445526 228.649429,157.582321 227.266449,154.226257 
	C227.422440,153.630432 227.531357,153.405975 227.962952,152.991974 
z"/>
<path fill="#6766A9" opacity="1.000000" stroke="none" 
	d="
M225.644424,148.417267 
	C227.404892,148.650543 227.946640,149.756073 228.009460,151.529358 
	C227.825043,152.046188 227.631866,152.225174 227.045059,152.443604 
	C225.822144,152.269012 225.285095,151.733704 224.906158,150.560455 
	C224.875778,149.625290 225.041077,149.127197 225.644424,148.417267 
z"/>
<path fill="#6C6DAD" opacity="1.000000" stroke="none" 
	d="
M225.882980,147.886246 
	C225.907761,148.677338 225.864304,149.192749 225.781525,150.095703 
	C224.070816,151.211014 222.763062,150.788925 221.728210,148.869476 
	C221.797195,147.624542 222.409851,147.275635 223.578094,147.140839 
	C224.176727,147.135376 224.400696,147.122284 225.155182,147.083344 
	C225.728699,147.241852 225.771729,147.426224 225.882980,147.886246 
z"/>
<path fill="#6766A9" opacity="1.000000" stroke="none" 
	d="
M225.615936,146.899567 
	C225.685684,147.057465 225.486298,147.049438 225.390442,147.046921 
	C225.294586,147.044403 225.186432,146.632095 225.147705,146.425888 
	C225.279587,146.372833 225.425323,146.546829 225.615936,146.899567 
z"/>
<path fill="#6C6DAD" opacity="1.000000" stroke="none" 
	d="
M227.046982,152.120499 
	C227.422241,151.953781 227.719009,151.908417 227.868622,151.887802 
	C228.018234,151.867188 228.165253,152.330780 228.225464,152.566620 
	C228.285660,152.802444 228.120819,152.914658 228.040665,152.973938 
	C227.347961,153.100616 226.918396,152.851898 227.046982,152.120499 
z"/>
<path fill="#174EB2" opacity="1.000000" stroke="none" 
	d="
M132.918854,345.334503 
	C133.182709,345.007874 133.355469,345.004730 133.787857,344.994080 
	C136.060959,345.767517 137.093063,347.413422 137.945312,349.621521 
	C136.214233,351.063721 134.216049,351.531677 132.459915,350.147095 
	C130.600113,348.680817 132.567276,347.158813 132.918854,345.334503 
z"/>
<path fill="#4D5A97" opacity="1.000000" stroke="none" 
	d="
M159.360321,358.789856 
	C158.391037,357.312592 156.794495,357.074066 155.512543,355.934509 
	C156.752365,353.502930 159.008270,353.786072 161.131989,353.898773 
	C177.501968,354.767670 193.867371,355.311829 210.208496,353.429077 
	C211.726288,353.254211 213.181335,353.088135 214.705872,354.621796 
	C215.287628,355.468781 215.576111,355.938507 215.952087,356.669800 
	C213.946609,357.257233 211.853592,357.583160 209.367477,357.954071 
	C203.293732,358.024567 197.613098,358.050079 191.464706,358.104004 
	C185.644989,358.116272 180.293030,358.100159 174.475250,358.118225 
	C171.318756,358.105774 168.628067,358.059113 165.489868,358.011200 
	C164.004684,358.881378 162.741592,358.320190 161.282745,358.710510 
	C160.534958,358.851990 160.107544,358.833984 159.360321,358.789856 
z"/>
<path fill="#4356A4" opacity="1.000000" stroke="none" 
	d="
M160.676971,140.206146 
	C166.290878,141.859467 171.720444,140.649399 177.530777,140.961060 
	C184.014877,140.963547 190.033051,140.976089 196.517639,140.981216 
	C198.104782,141.161530 199.225479,141.349289 200.648773,141.693878 
	C201.092072,142.116730 201.232758,142.382751 201.244690,143.080658 
	C199.425430,145.672821 196.951538,145.335388 194.687378,145.388763 
	C187.711594,145.553207 180.726974,145.625504 173.756165,145.401840 
	C165.848724,145.148117 158.182373,146.118042 150.733963,148.791687 
	C149.475372,149.243469 148.195038,149.624802 146.492554,148.762787 
	C145.966736,148.242584 145.813904,147.981003 145.814667,147.291748 
	C146.206650,146.386337 146.445023,145.908630 146.856018,145.225204 
	C151.981277,144.933014 155.438507,140.603394 160.676971,140.206146 
z"/>
<path fill="#315096" opacity="1.000000" stroke="none" 
	d="
M145.595245,146.908722 
	C145.977005,147.051941 145.985733,147.239838 146.002075,147.709747 
	C146.348160,151.761963 144.066788,152.705383 140.567657,152.478546 
	C140.218369,152.245361 140.052444,152.073914 139.967865,151.988190 
	C140.275436,148.755981 142.118454,147.174667 145.595245,146.908722 
z"/>
<path fill="#3355A0" opacity="1.000000" stroke="none" 
	d="
M161.318512,358.885010 
	C162.084015,358.581482 163.205673,358.292938 164.684845,358.007141 
	C163.919800,358.306610 162.797226,358.603302 161.318512,358.885010 
z"/>
<path fill="#6766A9" opacity="1.000000" stroke="none" 
	d="
M201.107193,143.118546 
	C200.976746,142.706482 200.934647,142.280762 200.943008,142.065735 
	C202.042130,141.881714 203.132904,141.912720 204.631744,141.926193 
	C206.075272,141.131180 207.300980,141.693054 208.692230,141.225983 
	C208.974976,141.021988 209.070068,140.622086 209.113953,140.423676 
	C214.230515,141.686768 218.715439,144.458191 223.707901,146.896317 
	C223.494141,147.377304 223.035522,147.606140 222.327255,147.906403 
	C221.581497,148.697144 220.785370,149.456696 220.057800,149.218338 
	C213.827133,147.177094 206.964020,147.216812 201.107193,143.118546 
z"/>
<path fill="#5059C2" opacity="1.000000" stroke="none" 
	d="
M208.578613,141.016968 
	C207.893845,141.329651 206.812729,141.637314 205.385712,141.926819 
	C205.039825,141.908646 205.013794,141.455978 205.008301,141.225906 
	C206.062637,141.001205 207.122437,141.006577 208.578613,141.016968 
z"/>
<path fill="#5059C2" opacity="1.000000" stroke="none" 
	d="
M204.997833,141.001465 
	C204.995667,141.002914 204.961227,140.930130 204.982025,140.962982 
	C205.002823,140.995834 205.000000,141.000000 204.997833,141.001465 
z"/>
<path fill="#5059C2" opacity="1.000000" stroke="none" 
	d="
M207.762787,217.261826 
	C213.325027,215.062973 218.753174,216.295914 224.566437,216.074829 
	C225.855255,231.048981 226.240112,245.998337 226.003860,260.961761 
	C225.946198,264.614258 226.250412,268.292816 224.927048,271.823181 
	C224.187378,273.796478 224.701401,275.450684 226.459137,276.608643 
	C228.512772,277.961487 229.083328,279.927856 229.006180,282.613525 
	C220.967804,283.164185 212.891220,282.610535 204.467453,284.022430 
	C203.920593,265.235443 203.016754,246.446762 203.714493,227.655350 
	C203.850189,224.000534 205.038940,220.501419 207.762787,217.261826 
z"/>
<path fill="#FFFEFE" opacity="1.000000" stroke="none" 
	d="
M369.665100,321.779907 
	C371.633240,323.981018 371.551910,326.342529 371.564575,328.641296 
	C371.605499,336.056885 371.598358,343.472748 371.617859,351.344238 
	C371.704010,352.140320 371.619965,352.434357 371.251495,352.886139 
	C371.054260,353.633270 370.979340,354.176331 370.877686,355.110657 
	C370.426453,355.852203 370.001984,356.202545 369.264404,356.823608 
	C336.635864,357.031158 304.320435,356.969330 272.005035,356.903961 
	C265.371368,356.890533 264.872467,356.449951 264.871185,349.798035 
	C264.858307,283.165985 264.861572,216.533905 264.879791,149.901840 
	C264.881561,143.486847 265.379822,142.994141 271.653442,142.974960 
	C301.137512,142.884857 330.621704,142.821899 360.570709,142.671387 
	C363.219696,141.031601 365.586029,141.594772 368.392944,142.050018 
	C369.445496,142.231628 370.020508,142.432205 370.953857,142.956543 
	C373.264191,145.498932 373.465088,148.231293 373.518799,151.067368 
	C373.651886,158.101166 373.007538,165.159317 374.272400,172.625275 
	C374.515686,173.742752 374.483063,174.393372 374.189392,175.519302 
	C373.879059,176.655487 373.596100,177.259048 372.852966,178.172913 
	C371.954590,178.922470 371.354767,179.191895 370.219086,179.383362 
	C363.457489,179.599182 357.175415,179.451141 350.421265,179.500000 
	C335.591919,179.522903 321.234924,179.543793 306.879120,179.493912 
	C303.452942,179.482010 301.903625,180.767197 301.782043,184.002777 
	C301.248413,198.203705 301.478333,212.408203 301.645599,226.611740 
	C301.691071,230.473618 304.472473,230.447800 307.232635,230.463745 
	C321.388458,230.545456 335.544373,230.471527 349.700195,230.504456 
	C350.699402,230.506790 351.698761,230.511841 353.150940,230.665649 
	C354.868835,231.101471 355.578766,232.043686 356.262817,233.562195 
	C356.629578,235.374023 356.905701,236.762817 357.323517,238.545349 
	C357.440308,239.498093 357.454956,240.043533 357.404907,240.990250 
	C356.353943,246.058365 356.225189,250.740067 357.229919,255.797180 
	C357.444794,256.851440 357.479065,257.555359 357.492554,258.591400 
	C357.498383,259.572906 357.497040,260.224335 357.489502,261.203003 
	C357.472839,261.981262 357.438965,262.430634 357.295593,263.222321 
	C356.784210,264.462219 356.306885,265.328033 355.593964,266.517242 
	C355.224396,267.071289 355.062531,267.286926 354.617279,267.803711 
	C354.118042,268.285797 353.902222,268.466766 353.312256,268.858215 
	C348.523804,269.961212 344.058868,269.290009 339.169189,269.500000 
	C328.621552,269.597260 318.524994,269.296082 307.984863,269.670105 
	C306.653503,269.655365 305.771301,269.674255 304.463684,269.888306 
	C301.637634,270.442627 301.530182,272.257599 301.521027,274.176239 
	C301.458862,287.211243 301.628113,300.247070 301.441925,313.280731 
	C301.399689,316.239166 302.761536,317.245056 305.477875,317.722687 
	C321.332123,320.510651 337.315643,319.382782 353.252686,319.336304 
	C356.492035,319.326874 359.652832,317.575897 363.494263,317.933868 
	C365.143555,318.039825 366.200104,318.537720 367.596008,319.336426 
	C368.211578,319.690186 368.456940,319.830444 368.993774,320.275391 
	C369.383270,320.842743 369.481323,321.105438 369.665100,321.779907 
z"/>
<path fill="#A065D9" opacity="1.000000" stroke="none" 
	d="
M371.924530,174.200211 
	C371.184082,163.977524 373.099640,153.814331 369.728577,143.422882 
	C366.834503,142.917374 364.380310,142.841034 361.480835,142.679108 
	C361.022888,142.243683 361.010223,141.893829 360.996918,141.281738 
	C363.706177,139.184067 366.465576,140.596542 369.600891,140.928253 
	C373.778809,139.772354 375.051270,142.460846 374.798798,145.069611 
	C374.016998,153.148666 375.075073,161.090958 375.765869,169.072556 
	C375.994476,171.714233 375.238800,173.663300 371.924530,174.200211 
z"/>
<path fill="#FCFDFE" opacity="1.000000" stroke="none" 
	d="
M200.511139,142.753815 
	C208.010330,143.452484 215.014908,144.313599 221.713409,147.907211 
	C223.102768,148.729919 224.127945,149.482040 225.447662,150.358688 
	C226.122742,150.904617 226.503265,151.326004 227.153015,151.850586 
	C227.506149,152.211365 227.626968,152.450287 227.872620,152.851883 
	C230.229324,155.239029 232.022873,157.785995 233.661789,160.843506 
	C239.112991,174.117615 237.732544,187.823685 237.830688,201.368134 
	C237.930252,215.111679 239.080551,214.649658 224.559006,214.370010 
	C217.779648,214.239487 210.962265,215.068542 203.798737,213.550812 
	C202.465134,213.206711 201.979202,212.576233 201.612839,211.352081 
	C201.530167,210.385681 201.512512,209.831863 201.505371,208.863129 
	C201.298843,202.147736 202.016281,195.812714 200.707123,189.170105 
	C200.500900,188.038727 200.371918,187.290131 200.043396,186.209442 
	C198.256012,182.201431 195.187149,180.451645 191.410263,179.890289 
	C186.496017,179.159943 181.533340,179.503204 176.592163,179.583511 
	C173.923981,179.626862 172.689514,181.735519 171.238327,184.053070 
	C169.803940,191.466919 168.548141,198.524139 168.530365,205.685959 
	C168.457596,235.002335 168.415237,264.319458 168.576675,293.635132 
	C168.606384,299.029785 168.423477,304.527344 170.166687,310.211121 
	C170.850601,311.828827 170.963745,313.170410 171.626923,314.709351 
	C172.236389,316.465149 173.330429,317.340027 174.855759,318.272644 
	C181.984238,320.654388 188.776947,318.563782 195.956635,318.200134 
	C199.065262,317.112000 200.361984,315.334076 200.842117,312.321747 
	C202.146561,304.137726 200.907898,295.900360 201.935089,287.363098 
	C202.309631,286.809998 202.504700,286.621826 203.101715,286.372742 
	C206.133392,284.914886 208.987366,285.200714 211.804810,285.200806 
	C218.460556,285.201080 225.116318,285.194641 231.772064,285.192444 
	C235.509644,285.191193 237.917740,286.789429 237.833511,290.777985 
	C237.577347,302.907623 238.743713,315.073120 237.066422,327.165588 
	C235.222656,340.458282 228.492889,349.967773 215.266327,354.773895 
	C208.561508,356.829407 201.982895,357.240112 195.332123,356.988678 
	C182.273956,356.494934 169.150269,358.069885 155.728210,355.723358 
	C155.306595,355.699951 155.282776,355.711090 155.281006,355.698730 
	C154.678192,355.632568 154.089264,355.505890 153.287750,355.174927 
	C143.897598,352.126923 138.055069,345.543213 133.298279,337.253296 
	C129.669022,324.951385 130.407166,312.613037 130.401260,300.335693 
	C130.382111,260.543030 130.376526,220.750336 130.401398,180.957672 
	C130.407913,170.542694 132.880463,160.912872 140.032959,152.529282 
	C141.981461,150.974258 143.744537,149.703156 145.758636,148.211914 
	C156.174149,142.967514 167.077240,142.636795 178.094925,142.824112 
	C185.409561,142.948456 192.728516,142.817703 200.511139,142.753815 
z"/>
<path fill="#4556BE" opacity="1.000000" stroke="none" 
	d="
M202.522247,210.666489 
	C202.885788,211.641556 203.055588,212.222839 203.300552,213.097107 
	C203.867401,215.502762 205.245026,216.597595 207.713715,216.901276 
	C204.533478,233.396698 206.476456,250.072113 206.018875,266.646973 
	C205.964096,268.631561 205.472580,270.931091 206.719986,272.506165 
	C210.456238,277.224030 208.061218,280.430298 204.259064,283.771423 
	C203.871902,284.591827 203.705704,285.157104 203.521576,286.017090 
	C203.503647,286.311798 203.525009,286.337067 203.508377,286.341125 
	C201.580170,287.693359 202.056274,289.754486 202.028137,291.594452 
	C201.949158,296.757751 201.878052,301.926849 202.040939,307.086060 
	C202.160324,310.867371 201.414459,314.318451 199.003113,317.737244 
	C197.119308,318.628876 195.618240,319.349030 193.802246,320.354523 
	C191.713760,320.499054 190.026352,320.560181 187.963898,320.200195 
	C187.180847,319.545502 186.910416,319.034393 186.733505,318.008240 
	C190.295044,310.709595 190.495667,303.303741 190.596970,295.774841 
	C191.051422,261.998383 190.129837,228.224060 190.574463,194.449860 
	C190.633072,189.997864 190.241837,185.466293 192.206421,180.836365 
	C197.558517,179.804901 200.084381,181.885010 201.079758,186.703979 
	C202.579453,193.964569 201.702988,201.271454 202.064880,208.987442 
	C202.176483,209.707642 202.252502,209.990173 202.522247,210.666489 
z"/>
<path fill="#4D5A97" opacity="1.000000" stroke="none" 
	d="
M153.318832,355.132355 
	C153.671707,355.052429 154.266495,355.144928 155.070251,355.461914 
	C154.706406,355.559174 154.133575,355.431976 153.318832,355.132355 
z"/>
<path fill="#AD69DC" opacity="1.000000" stroke="none" 
	d="
M371.294281,174.189606 
	C372.737915,173.154678 373.474182,171.993851 373.435822,170.315262 
	C373.254211,162.369949 373.133728,154.423233 372.966034,146.477554 
	C372.923157,144.446136 372.647400,142.479309 370.326477,141.128754 
	C371.397217,128.299225 370.909668,115.584999 371.011353,102.887512 
	C371.041443,99.129341 375.031372,95.755539 372.039856,91.372314 
	C373.071838,91.018166 374.139435,91.013069 375.607849,91.014854 
	C377.862030,103.099907 376.680298,115.260033 376.967957,127.380341 
	C376.995148,128.526764 377.154785,130.168854 376.507080,130.750977 
	C372.496826,134.355270 373.697510,137.841919 376.166046,141.610580 
	C377.199493,143.188324 376.806152,145.113037 376.540802,146.963898 
	C375.807800,152.076111 375.702484,156.900940 378.127838,161.974426 
	C380.072784,166.042953 380.582275,171.708984 377.589447,175.351425 
	C373.870392,179.877640 375.568817,184.312180 376.073608,188.677307 
	C376.413147,191.613281 376.995850,194.541504 376.996277,197.528366 
	C377.001526,235.459976 377.062531,273.391846 376.923004,311.322937 
	C376.904968,316.222351 378.822327,320.878326 378.713318,325.498474 
	C378.543030,332.718170 378.646454,339.898102 378.976044,347.094910 
	C379.094604,349.682770 378.104279,351.619385 375.315948,352.832581 
	C373.137939,349.074188 374.172852,344.906006 374.040192,340.852844 
	C373.853058,335.137085 373.959747,329.411713 373.967834,323.349670 
	C373.994873,323.008881 374.410370,322.764984 374.410370,322.764984 
	C374.410370,322.764984 374.376465,322.284393 374.178986,322.146454 
	C372.800171,321.766968 371.618835,321.525421 370.076355,321.262329 
	C369.715240,321.240814 369.296875,321.483459 369.072266,321.572998 
	C368.847626,321.662506 368.741180,321.467194 368.771423,321.360168 
	C367.810974,319.772827 366.370789,318.557709 366.008057,316.208008 
	C363.727203,311.432983 363.285980,306.923157 364.281616,302.184448 
	C364.691223,300.234985 364.522156,298.198151 364.526581,296.198059 
	C364.603638,261.365540 364.345215,226.532120 364.726227,191.701447 
	C364.761932,188.434402 362.166626,185.315033 364.606812,181.694946 
	C365.104858,181.180893 365.301758,180.981094 365.786163,180.489655 
	C366.496124,179.875961 366.963989,179.649048 367.842224,179.440613 
	C368.634460,179.125626 369.023865,178.839966 369.599640,178.217316 
	C369.954620,177.648254 370.154114,177.419647 370.653320,177.185455 
	C371.347168,176.703506 371.511139,176.181702 371.313293,175.317993 
	C371.065826,174.819031 371.061615,174.574280 371.294281,174.189606 
z"/>
<path fill="#B368DF" opacity="1.000000" stroke="none" 
	d="
M373.985474,322.258606 
	C374.344727,321.999451 374.707916,321.990387 375.071136,321.981293 
	C374.841095,322.277710 374.611053,322.574127 374.187927,322.939697 
	C373.993073,322.842133 373.991241,322.675385 373.985474,322.258606 
z"/>
<path fill="#8677C3" opacity="1.000000" stroke="none" 
	d="
M370.823517,355.511475 
	C370.850922,355.501831 370.773132,355.485504 370.778381,355.509369 
	C370.783661,355.533234 370.796112,355.521149 370.823517,355.511475 
z"/>
<path fill="#C9B4DF" opacity="1.000000" stroke="none" 
	d="
M371.302246,352.916077 
	C371.139008,352.771362 371.215973,352.469666 371.493011,351.992523 
	C371.725433,352.137909 371.675201,352.451935 371.302246,352.916077 
z"/>
<path fill="#C9B4DF" opacity="1.000000" stroke="none" 
	d="
M368.962769,321.802124 
	C368.847626,321.662506 369.269928,321.423981 369.492584,321.332397 
	C369.715240,321.240814 369.761353,321.715118 369.756042,321.953400 
	C369.502991,322.171600 369.278717,322.088287 368.962769,321.802124 
z"/>
<path fill="#8C72B9" opacity="1.000000" stroke="none" 
	d="
M354.138245,231.766296 
	C338.028839,232.077957 322.201843,231.774948 306.383331,232.021179 
	C301.353363,232.099457 299.856171,230.806839 299.989563,225.666611 
	C300.361267,211.345245 300.198120,197.007126 300.059296,182.677444 
	C300.026520,179.293884 300.985931,177.987152 304.560730,178.037262 
	C319.388916,178.245102 334.220642,178.199036 349.511414,178.327164 
	C350.360565,178.940430 350.477875,179.527313 350.071716,180.563019 
	C348.000336,182.558365 345.724396,182.282135 343.110748,182.378281 
	C336.223633,180.941925 329.858795,183.021988 323.009033,182.645538 
	C317.851379,181.620743 313.417480,183.619019 308.835632,184.060135 
	C306.373596,184.297180 305.585938,186.743896 305.553070,189.052292 
	C305.401215,199.713440 305.366608,210.376053 305.572968,221.036606 
	C305.628937,223.929245 306.754028,226.609772 309.855804,226.986328 
	C315.076813,227.620148 320.336639,228.340256 326.048309,227.652740 
	C331.675201,227.398071 336.883881,227.694611 342.559631,227.636200 
	C346.556366,227.553864 350.139069,227.157013 353.828156,229.105194 
	C354.484222,230.064682 354.569824,230.698792 354.138245,231.766296 
z"/>
<path fill="#8C72B9" opacity="1.000000" stroke="none" 
	d="
M365.091003,320.619232 
	C344.612823,321.253998 324.162750,321.362335 303.713623,321.563843 
	C300.753571,321.593018 300.092010,320.162201 300.095276,317.561157 
	C300.114624,302.262146 300.062958,286.962952 299.978821,271.664124 
	C299.963531,268.882843 300.768372,267.111237 304.374207,267.435303 
	C305.034088,267.485901 305.261810,267.537201 305.834961,267.531128 
	C316.807281,267.536163 327.434113,267.598541 338.520325,267.756653 
	C339.114380,268.125336 339.249084,268.398346 339.282898,269.117065 
	C338.053375,271.875732 335.832458,271.921661 333.282593,272.313904 
	C329.560852,272.604584 326.291931,272.492676 322.620789,271.875305 
	C318.876923,271.399292 315.537903,271.317352 312.217316,271.601044 
	C307.733032,271.984161 305.737213,273.757233 305.610626,278.184265 
	C305.291565,289.341583 305.370911,300.507751 305.576965,311.668915 
	C305.632019,314.651886 307.027740,317.000000 310.202698,317.237122 
	C313.983154,317.519501 317.768402,318.276825 322.005432,317.531067 
	C327.345398,317.577545 332.284698,317.416138 337.672821,317.986115 
	C342.848969,317.210632 347.474884,318.827179 352.651947,318.359070 
	C355.469696,318.441162 357.729248,317.664276 360.054840,317.791229 
	C362.037567,317.899475 364.112274,317.868958 365.091003,320.619232 
z"/>
<path fill="#9A6EC1" opacity="1.000000" stroke="none" 
	d="
M339.013000,269.512665 
	C339.011078,268.827271 339.005219,268.632294 338.989502,268.144836 
	C343.447296,267.684753 347.914917,267.517120 352.784149,267.239105 
	C353.277802,266.929016 353.369843,266.729309 353.785889,266.591370 
	C354.109924,266.653076 354.367462,266.435913 354.482117,266.312531 
	C354.975494,265.297119 355.630035,264.503601 355.649536,263.171204 
	C355.739899,262.492798 355.753815,262.099091 355.777954,261.410095 
	C355.721649,260.909607 355.655151,260.704407 355.687866,260.191162 
	C355.783875,259.186493 355.780701,258.489838 355.785431,257.444946 
	C355.179443,252.013611 355.621094,246.912796 355.657227,241.357697 
	C355.775299,240.496185 355.772980,240.097778 355.783936,239.400757 
	C355.287811,237.968201 355.609314,236.752106 355.309448,235.255615 
	C354.820465,234.197495 354.471283,233.467361 353.987335,232.452774 
	C353.881317,231.697311 353.910065,231.226288 353.952454,230.400650 
	C354.927734,229.552429 355.841797,229.728287 357.096252,230.566772 
	C358.944031,232.012695 359.224976,233.674835 359.276886,235.336151 
	C359.587341,245.273346 359.568054,255.212311 359.291321,265.150635 
	C359.228180,267.418671 358.477448,269.360657 356.178162,270.995361 
	C352.885864,272.028076 349.973724,272.460358 346.527771,272.512878 
	C343.810760,271.296722 340.575653,273.062164 339.013000,269.512665 
z"/>
<path fill="#A767DA" opacity="1.000000" stroke="none" 
	d="
M365.427307,321.220581 
	C361.498199,319.207886 357.624939,320.395996 353.453064,319.990295 
	C352.563965,319.275696 352.472290,318.519073 352.745911,317.335785 
	C353.202545,315.270905 353.870575,313.796875 355.814392,312.698120 
	C360.490417,311.258972 364.147888,312.458160 367.670898,315.710144 
	C368.288544,317.491425 368.579529,318.982819 368.836090,320.863708 
	C367.798431,321.277252 366.795227,321.301361 365.427307,321.220581 
z"/>
<path fill="#9A6EC1" opacity="1.000000" stroke="none" 
	d="
M350.255859,180.355988 
	C349.981079,179.640503 349.975494,179.288406 349.970825,178.672241 
	C356.295013,178.280243 362.618286,178.152344 369.389160,177.986298 
	C369.861542,178.689285 369.886261,179.430435 369.901184,180.543961 
	C369.561310,181.365326 369.121948,181.541000 368.281677,181.197754 
	C367.990021,180.952133 367.502289,180.929764 367.258179,180.930542 
	C363.043213,182.531815 358.895966,182.579910 354.288574,182.183502 
	C352.752258,181.592545 351.511444,181.477921 350.255859,180.355988 
z"/>
<path fill="#C9B4DF" opacity="1.000000" stroke="none" 
	d="
M355.652130,241.286835 
	C356.438782,245.977600 356.097748,251.074844 355.894135,256.632690 
	C354.762634,251.973785 355.141266,246.826477 355.652130,241.286835 
z"/>
<path fill="#C9B4DF" opacity="1.000000" stroke="none" 
	d="
M355.169159,235.282654 
	C356.193542,235.901566 356.084747,237.143372 355.891907,238.742401 
	C355.587646,237.947342 355.378174,236.792496 355.169159,235.282654 
z"/>
<path fill="#C9B4DF" opacity="1.000000" stroke="none" 
	d="
M355.551880,263.127380 
	C356.093353,263.989746 355.841675,264.958160 354.842224,266.003143 
	C354.857086,265.248840 355.117401,264.308563 355.551880,263.127380 
z"/>
<path fill="#A065D9" opacity="1.000000" stroke="none" 
	d="
M371.107330,175.398102 
	C371.169281,175.619965 371.157654,176.177963 371.008667,176.922272 
	C370.925446,176.650467 370.979614,176.192352 371.107330,175.398102 
z"/>
<path fill="#A990C9" opacity="1.000000" stroke="none" 
	d="
M369.303040,143.084442 
	C369.288727,142.993713 369.550476,143.051880 369.586853,143.104889 
	C369.623199,143.157913 369.317322,143.175186 369.303040,143.084442 
z"/>
<path fill="#C9B4DF" opacity="1.000000" stroke="none" 
	d="
M306.026672,267.364990 
	C305.950317,267.506866 305.720215,267.539917 305.148224,267.503754 
	C305.161865,267.375092 305.517426,267.315643 306.026672,267.364990 
z"/>
<path fill="#C9B4DF" opacity="1.000000" stroke="none" 
	d="
M355.689392,260.023193 
	C355.820404,260.088470 355.853760,260.293762 355.837646,260.806946 
	C355.722687,260.797638 355.657227,260.480438 355.689392,260.023193 
z"/>
<path fill="#C9B4DF" opacity="1.000000" stroke="none" 
	d="
M353.922119,266.649353 
	C353.998169,266.893799 353.813751,267.047150 353.371185,267.120941 
	C353.289490,266.877747 353.472351,266.716705 353.922119,266.649353 
z"/>
<path fill="#4D5A97" opacity="1.000000" stroke="none" 
	d="
M167.935608,313.290527 
	C167.323380,311.434692 167.055756,309.455811 167.054398,307.476776 
	C167.027756,268.650360 167.022003,229.823959 167.049301,190.997559 
	C167.051468,187.898178 166.566269,184.621048 169.827789,182.302002 
	C171.366867,185.977982 170.668488,189.442245 170.640259,192.911102 
	C170.344620,229.223129 170.409531,265.535950 170.572983,301.848663 
	C170.588318,305.254120 172.292282,308.766296 169.598389,312.344788 
	C168.952164,312.825378 168.678177,312.996399 167.935608,313.290527 
z"/>
<path fill="#4D5A97" opacity="1.000000" stroke="none" 
	d="
M202.115601,210.832565 
	C200.153702,206.873672 201.164307,202.524841 201.060913,198.275772 
	C200.968063,194.460236 200.765549,190.685547 199.978409,186.953445 
	C199.262894,183.560837 197.487686,181.235352 193.374924,180.940430 
	C191.396103,181.945816 189.716797,182.197449 187.820862,181.834320 
	C184.025711,181.107422 180.266052,181.745117 176.112518,182.489410 
	C174.062698,182.551315 172.442307,183.269180 170.465118,182.385437 
	C170.136627,182.135315 169.990402,181.992706 169.917145,181.921539 
	C169.771454,178.686401 172.571548,178.555206 174.348618,178.383987 
	C181.054504,177.737930 187.798218,177.524063 194.523376,178.515823 
	C198.583450,179.114532 200.993927,181.398941 202.074524,185.644638 
	C202.206253,186.179764 202.308975,186.341934 202.308838,186.773087 
	C202.301651,194.040451 202.397354,201.038864 202.478790,208.503174 
	C202.564514,209.539810 202.508606,210.098053 202.115601,210.832565 
z"/>
<path fill="#6766A9" opacity="1.000000" stroke="none" 
	d="
M196.814850,317.293152 
	C200.257767,315.041168 200.952881,311.887909 200.991104,308.482666 
	C201.050354,303.204895 201.010193,297.926086 201.059082,292.648132 
	C201.078812,290.519318 200.913803,288.299591 203.155487,286.529663 
	C201.722748,293.921356 202.999481,301.612579 202.637833,309.242554 
	C202.437271,313.473907 202.242905,317.652679 197.244019,319.857239 
	C196.215088,318.978821 196.199936,318.273773 196.814850,317.293152 
z"/>
<path fill="#4D5A97" opacity="1.000000" stroke="none" 
	d="
M187.667114,319.689636 
	C189.732880,319.974762 191.447769,319.965759 193.591003,319.938690 
	C194.575073,319.433746 195.206589,319.275665 196.191986,319.694702 
	C196.461868,319.907501 196.819275,320.051422 197.009399,320.078552 
	C189.337112,322.632690 181.351257,321.470459 173.044434,320.625519 
	C172.840820,320.075989 172.978088,319.803345 173.473724,319.245728 
	C178.350296,318.377655 182.867584,317.822388 187.667114,319.689636 
z"/>
<path fill="#4D5A97" opacity="1.000000" stroke="none" 
	d="
M172.791840,320.244446 
	C170.951324,320.258636 169.992157,319.039062 169.224655,317.143372 
	C171.912659,315.621674 173.348297,316.402100 173.271210,319.552429 
	C173.058090,319.933105 172.880112,320.140259 172.791840,320.244446 
z"/>
<path fill="#4D5A97" opacity="1.000000" stroke="none" 
	d="
M168.915863,317.081482 
	C167.556137,316.496033 168.061905,315.089813 167.513733,313.757263 
	C167.467026,313.413635 167.771988,313.190948 167.925293,313.080750 
	C170.221542,313.211548 169.995941,314.657928 169.433533,316.487152 
	C169.173706,316.830811 169.001846,316.997955 168.915863,317.081482 
z"/>
<path fill="#A990C9" opacity="1.000000" stroke="none" 
	d="
M202.103455,211.055450 
	C201.988892,210.483749 202.076691,209.948837 202.314499,209.191498 
	C202.596725,209.429306 202.728958,209.889557 202.788605,210.705032 
	C202.715988,211.060272 202.305832,211.092224 202.103455,211.055450 
z"/>
<path fill="#A990C9" opacity="1.000000" stroke="none" 
	d="
M202.298157,186.924866 
	C202.142319,186.875427 202.078690,186.708801 202.059296,186.279877 
	C202.351349,186.216553 202.446960,186.479919 202.298157,186.924866 
z"/>
<path fill="#3C54BE" opacity="1.000000" stroke="none" 
	d="
M174.636948,181.262726 
	C180.728333,179.621765 186.485336,179.596252 192.630127,180.738571 
	C194.995117,184.062424 193.186417,187.223160 193.195877,190.378860 
	C193.278549,217.960083 192.195999,245.548782 193.685089,273.125366 
	C194.311523,284.726227 192.962646,296.296570 192.534760,307.881653 
	C192.396713,311.619476 193.031494,315.657898 188.241547,317.766846 
	C184.212997,320.055389 180.163544,318.757965 176.282089,318.667267 
	C173.453110,318.601166 172.853897,315.804230 172.825653,313.385712 
	C172.767319,308.392487 172.518234,303.405151 172.521698,298.409515 
	C172.545212,264.445892 172.539169,230.482285 172.530136,196.518661 
	C172.529343,193.525253 172.802261,190.462814 171.749039,187.607925 
	C170.664459,184.668121 171.561356,182.795517 174.636948,181.262726 
z"/>
<path fill="#3956B3" opacity="1.000000" stroke="none" 
	d="
M174.642136,180.990021 
	C173.821106,182.903885 172.191635,184.743073 174.889023,186.885193 
	C175.430527,187.315216 175.281540,188.743088 175.279556,189.710526 
	C175.201385,227.646851 175.084076,265.583130 175.040253,303.519470 
	C175.036240,306.986328 175.692871,310.419739 175.172989,313.937195 
	C174.835434,316.220978 176.033188,317.653442 178.687820,317.622650 
	C181.505402,317.589905 184.326508,317.859680 187.570587,317.995605 
	C187.999283,318.436279 188.003448,318.878632 188.012802,319.652405 
	C183.338394,319.977448 178.658798,319.971130 173.518646,319.948975 
	C172.603897,318.265442 171.517319,317.289246 169.499115,316.903351 
	C168.918350,315.740509 168.662979,314.650238 168.243103,313.265259 
	C169.715271,308.674561 167.975357,304.395630 167.983078,300.105499 
	C168.046371,264.960327 168.027390,229.814987 168.004623,194.669724 
	C168.002014,190.622864 168.846725,186.740143 170.021912,182.507095 
	C171.518188,181.761002 172.899765,181.386688 174.642136,180.990021 
z"/>
<path fill="#3956B3" opacity="1.000000" stroke="none" 
	d="
M196.608597,319.564880 
	C195.853882,319.918976 195.245911,319.930450 194.328644,319.931274 
	C194.347366,318.587097 195.054901,317.589478 196.753174,317.106140 
	C196.964676,317.756409 196.860001,318.489288 196.608597,319.564880 
z"/>
<path fill="#A766DC" opacity="1.000000" stroke="none" 
	d="
M353.641235,180.354523 
	C358.077789,180.185318 362.197510,179.518402 366.625854,180.794800 
	C366.603333,181.827576 365.604248,182.988647 365.870514,183.580154 
	C369.618347,191.906540 366.683624,200.518188 366.816772,208.927399 
	C367.287262,238.648514 366.980927,268.381653 367.016083,298.110168 
	C367.022858,303.830353 364.903229,309.663025 367.911896,315.623962 
	C364.271851,315.343994 360.546173,314.687988 356.411438,314.015991 
	C351.407745,314.201385 350.709442,310.647156 350.965088,307.634888 
	C351.852173,297.183167 351.260315,286.722473 351.657715,276.276001 
	C351.744507,273.993958 352.422485,272.054413 354.648041,270.307953 
	C355.607300,268.623169 356.757111,267.290985 356.771729,265.946503 
	C356.895386,254.549850 357.842682,243.134567 356.161133,231.370483 
	C355.806580,230.603714 355.669678,230.202682 355.461609,229.468109 
	C355.180878,228.972855 355.026398,228.791656 354.555878,228.409500 
	C351.848724,226.347794 351.699097,223.654236 351.620514,220.974426 
	C351.332611,211.158722 351.908875,201.326340 350.966217,191.518570 
	C350.792175,189.707581 351.043213,187.853394 350.328979,186.110687 
	C349.078583,183.059723 350.291656,181.350082 353.641235,180.354523 
z"/>
<path fill="#A766DC" opacity="1.000000" stroke="none" 
	d="
M368.135010,181.160461 
	C368.413452,180.945648 368.836914,180.939163 369.575867,180.924515 
	C369.952240,181.314484 370.186951,181.973572 370.045410,182.067825 
	C369.208588,182.625168 368.764954,181.889374 368.135010,181.160461 
z"/>
<path fill="#8961D4" opacity="1.000000" stroke="none" 
	d="
M326.272858,229.539963 
	C320.369843,229.903046 314.728546,229.985748 309.089539,229.905670 
	C305.176758,229.850128 303.010651,228.046021 302.940796,223.793243 
	C302.725677,210.698013 303.568726,197.590271 302.473083,184.505402 
	C302.245758,181.790695 304.070679,181.159698 306.270630,181.022919 
	C311.226318,180.714828 316.182465,180.414352 321.575592,180.129456 
	C324.439606,182.073746 324.366302,184.808655 324.063599,187.412872 
	C322.895721,197.461136 323.682983,207.534012 323.503693,217.592834 
	C323.455597,220.290283 324.035614,222.846313 325.694763,225.059555 
	C326.631165,226.308670 327.202148,227.620361 326.272858,229.539963 
z"/>
<path fill="#9563D7" opacity="1.000000" stroke="none" 
	d="
M326.476868,229.911224 
	C320.251434,224.943588 320.849060,218.299286 320.960052,211.676270 
	C321.132477,201.387131 320.763397,191.085831 321.935364,180.486069 
	C328.689636,180.126816 335.366516,180.105499 342.510162,180.102264 
	C344.655243,183.703751 341.459930,186.582214 341.620514,190.069473 
	C342.166473,201.926971 339.344452,213.982468 343.864532,225.598755 
	C344.364471,226.883636 344.543640,228.189346 343.250000,229.636353 
	C337.641663,229.923447 332.292603,229.928040 326.476868,229.911224 
z"/>
<path fill="#9F65DA" opacity="1.000000" stroke="none" 
	d="
M343.449402,229.939194 
	C338.036194,222.481903 338.712372,214.053467 339.095825,205.812836 
	C339.364349,200.041321 337.460358,194.246613 339.358948,188.516037 
	C339.453979,188.229141 339.437225,187.757416 339.261780,187.550369 
	C335.133881,182.679184 340.022827,182.243729 342.798889,180.402191 
	C345.022552,180.080902 347.068207,180.041443 349.550232,179.997284 
	C351.055328,180.018158 352.123962,180.043732 353.591492,180.093903 
	C352.163147,182.084518 351.006226,183.983032 353.776245,186.224213 
	C354.375031,186.708710 354.589233,188.067154 354.482819,188.963989 
	C353.197479,199.798294 354.395752,210.660217 354.057312,221.502563 
	C353.994476,223.516418 354.332336,225.501343 356.659485,226.844086 
	C357.816711,227.568939 358.395020,228.273987 358.167572,229.668365 
	C357.496002,230.207947 356.980194,230.427536 356.238098,230.813843 
	C355.502991,230.741379 354.994141,230.502197 354.225708,230.154510 
	C350.613464,230.017197 347.260773,229.988373 343.449402,229.939194 
z"/>
<path fill="#8961D3" opacity="1.000000" stroke="none" 
	d="
M322.284668,319.597534 
	C317.174713,319.939697 312.349274,319.897552 307.526367,319.989319 
	C304.393768,320.048889 302.972137,318.684204 302.981720,315.520447 
	C303.022491,302.045044 303.043640,288.569031 302.948883,275.094086 
	C302.921997,271.270844 304.966522,269.592285 308.352142,269.281830 
	C312.647217,268.887970 316.976227,268.530090 321.625183,269.835388 
	C323.285950,271.273468 323.569275,272.656281 323.099884,274.504639 
	C320.276245,285.623535 320.991669,296.807587 322.662476,308.009094 
	C323.219727,311.744934 323.497192,315.524384 322.284668,319.597534 
z"/>
<path fill="#9363D7" opacity="1.000000" stroke="none" 
	d="
M322.466095,319.941772 
	C319.438080,314.053101 319.937897,307.669159 319.133087,301.528229 
	C318.489441,296.617157 319.076599,291.553223 318.979736,286.559814 
	C318.873199,281.067139 318.676849,275.590057 321.966522,270.359375 
	C325.370148,269.977692 328.728058,269.970520 332.544006,269.970215 
	C337.202576,272.386139 338.472595,276.054688 338.518188,280.801056 
	C338.629578,292.388458 337.614258,304.022552 339.562073,315.555847 
	C339.793640,316.927002 339.668182,318.198578 338.321686,319.593536 
	C332.973450,319.940277 327.953278,319.949371 322.466095,319.941772 
z"/>
<path fill="#9B64D7" opacity="1.000000" stroke="none" 
	d="
M338.460297,319.948120 
	C334.996246,308.460663 336.124756,296.747986 336.053589,285.118530 
	C336.022736,280.073578 336.009918,275.136261 333.088318,270.339325 
	C334.758270,269.709808 336.514496,269.442596 338.643799,269.098816 
	C340.934357,270.232452 343.089966,269.917816 345.595886,269.990784 
	C346.846466,270.864685 347.379333,271.809021 347.169708,273.111237 
	C345.575623,283.014984 346.593140,293.011444 346.418823,302.953522 
	C346.339020,307.505280 347.492218,312.556427 352.325439,315.293793 
	C353.081726,315.722107 353.436127,316.500336 353.882538,317.633179 
	C353.748138,318.493805 353.498871,318.989380 353.123169,319.731262 
	C348.306793,319.973419 343.616882,319.969269 338.460297,319.948120 
z"/>
<path fill="#A065DA" opacity="1.000000" stroke="none" 
	d="
M354.213196,317.757294 
	C352.381165,317.662140 350.750488,317.382050 349.154327,316.968628 
	C348.223602,316.727600 346.644196,316.393463 346.559265,315.895905 
	C345.886749,311.955658 342.330292,307.880310 342.933685,304.960602 
	C344.814392,295.860199 343.426666,286.853668 343.946136,277.844940 
	C344.093658,275.286926 344.724518,272.988190 345.895416,270.364532 
	C348.699799,269.988953 351.393646,269.982208 354.535614,269.968262 
	C353.089996,280.150696 354.409973,290.445129 353.974518,300.681946 
	C353.789246,305.037842 351.882202,309.585571 355.768951,313.733154 
	C355.477966,315.172119 354.953461,316.344238 354.213196,317.757294 
z"/>
<path fill="#3956B3" opacity="1.000000" stroke="none" 
	d="
M179.008240,184.770905 
	C177.652420,184.060791 176.250015,182.989853 178.183105,182.392990 
	C180.709808,181.612808 183.574432,181.398224 186.222900,183.938309 
	C183.801285,185.510696 181.525665,184.866684 179.008240,184.770905 
z"/>
<path fill="#AB67DD" opacity="1.000000" stroke="none" 
	d="
M358.316620,229.895203 
	C357.717316,229.199524 357.422791,228.410660 357.059875,227.312988 
	C358.163849,226.680420 359.571014,225.618790 360.328491,227.354935 
	C360.914581,228.698227 359.697388,229.326736 358.316620,229.895203 
z"/>
</svg>