<svg xmlns="http://www.w3.org/2000/svg" version="1.1" xmlns:xlink="http://www.w3.org/1999/xlink" xmlns:svgjs="http://svgjs.com/svgjs" width="512" height="512" x="0" y="0" viewBox="0 0 496 496" style="enable-background:new 0 0 512 512" xml:space="preserve" class=""><g transform="matrix(1,0,0,1,0,0)"><linearGradient id="a" x1="248" x2="248" y1="496" y2="0" gradientUnits="userSpaceOnUse"><stop stop-opacity="1" stop-color="#ec4899" offset="0"></stop><stop stop-opacity="1" stop-color="#1e40af" offset="1"></stop></linearGradient><path fill="url(#a)" d="M64 208h240c8.822 0 16-7.178 16-16V48c0-8.822-7.178-16-16-16H64c-8.822 0-16 7.178-16 16v144c0 8.822 7.178 16 16 16zm105.989-16c11.056-7.947 20.253-18.595 26.632-31.355l11.705-23.409c2.849-5.697 8.575-9.236 14.945-9.236a16.63 16.63 0 0 1 15.514 10.503l16.874 42.185A43.752 43.752 0 0 0 262.287 192zM64 48h240l.01 144H296c-11.289 0-21.293-6.772-25.485-17.254l-16.874-42.184C248.646 120.071 236.725 112 223.271 112c-12.47 0-23.68 6.928-29.256 18.081L182.31 153.49C170.434 177.244 146.558 192 120 192H64zm96 224h-16v-16h16zm128 0h-16v-16h16zm-32 0h-16v-16h16zm-192 0H48v-16h16zm128 0h-16v-16h16zm-96 0H80v-16h16zm32 0h-16v-16h16zm192 0h-16v-16h16zm-96 0h-16v-16h16zm-32 32h-16v-16h16zm-64 0h-16v-16h16zm96 0h-16v-16h16zm32 0h-16v-16h16zm-96 0h-16v-16h16zm160 0h-16v-16h16zm-256 0H48v-16h16zm32 0H80v-16h16zm192 0h-16v-16h16zM64 336H48v-16h16zm32 0H80v-16h16zm128 0H112v-16h112zm32 0h-16v-16h16zm32 0h-16v-16h16zm32 0h-16v-16h16zm-56-224c13.233 0 24-10.766 24-24s-10.767-24-24-24-24 10.766-24 24 10.767 24 24 24zm0-32c4.411 0 8 3.589 8 8s-3.589 8-8 8-8-3.589-8-8 3.589-8 8-8zM128 64H80v48h48zm-16 32H96V80h16zm80-32h-48v48h48zm-16 32h-16V80h16zm-48 32H80v48h48zm-16 32H96v-16h16zm344 144h16c13.233 0 24-10.766 24-24s-10.767-24-24-24H354.934c-2.173-10.656-8.538-19.678-17.213-25.398C346.444 223.258 352 212.268 352 200V40c0-22.056-17.944-40-40-40H56C33.944 0 16 17.944 16 40v160c0 12.268 5.556 23.258 14.279 30.602-9.489 6.257-16.225 16.462-17.722 28.437L0 359.502V360c0 22.056 17.944 40 40 40h288c22.056 0 40-17.944 40-40v-.498L357.062 272H472c4.411 0 8 3.589 8 8s-3.589 8-8 8h-16c-13.233 0-24 10.766-24 24v25.376a24.11 24.11 0 0 0-14.826 15.218C398.36 355.844 384 372.271 384 392v48c0 30.878 25.121 56 56 56s56-25.122 56-56v-48c0-19.729-14.36-36.156-33.174-39.405A24.106 24.106 0 0 0 448 337.377V312c0-4.411 3.589-8 8-8zM32 40c0-13.234 10.767-24 24-24h256c13.233 0 24 10.766 24 24v160c0 13.234-10.767 24-24 24H56c-13.233 0-24-10.766-24-24zm-3.565 221.023C29.933 249.038 40.171 240 52.249 240H315.751c12.078 0 22.316 9.038 23.814 21.023L350.937 352H17.063zM328 384H40c-10.428 0-19.318-6.689-22.621-16h333.242c-3.303 9.311-12.193 16-22.621 16zm104-24c0-4.411 3.589-8 8-8s8 3.589 8 8v16c0 4.411-3.589 8-8 8s-8-3.589-8-8zm-16 9.376V376c0 10.429 6.689 19.321 16 22.624V416h-32v-24c0-10.429 6.689-19.321 16-22.624zM440 480c-22.056 0-40-17.944-40-40v-8h80v8c0 22.056-17.944 40-40 40zm40-88v24h-32v-17.376c9.311-3.302 16-12.194 16-22.624v-6.624c9.311 3.303 16 12.195 16 22.624z" data-original="url(#a)" class=""></path></g></svg>
